<?xml version="1.0" encoding="UTF-8" standalone="no"?>
<!-- Created with Inkscape (http://www.inkscape.org/) -->

<svg
   xmlns:dc="http://purl.org/dc/elements/1.1/"
   xmlns:cc="http://creativecommons.org/ns#"
   xmlns:rdf="http://www.w3.org/1999/02/22-rdf-syntax-ns#"
   xmlns:svg="http://www.w3.org/2000/svg"
   xmlns="http://www.w3.org/2000/svg"
   xmlns:sodipodi="http://sodipodi.sourceforge.net/DTD/sodipodi-0.dtd"
   xmlns:inkscape="http://www.inkscape.org/namespaces/inkscape"
   width="133.84769mm"
   height="53.51833mm"
   viewBox="0 0 133.84769 53.51833"
   version="1.1"
   id="svg1305"
   sodipodi:docname="samarreta2.svg"
   inkscape:export-filename="/home/apol/samarreta.png"
   inkscape:export-xdpi="69"
   inkscape:export-ydpi="69"
   inkscape:version="0.92.4 5da689c313, 2019-01-14">
  <defs
     id="defs1299" />
  <sodipodi:namedview
     id="base"
     pagecolor="#ffffff"
     bordercolor="#666666"
     borderopacity="1.0"
     inkscape:pageopacity="0.0"
     inkscape:pageshadow="2"
     inkscape:zoom="2.7437282"
     inkscape:cx="252.94051"
     inkscape:cy="101.137"
     inkscape:document-units="mm"
     inkscape:current-layer="layer1"
     showgrid="false"
     fit-margin-top="0"
     fit-margin-left="0"
     fit-margin-right="0"
     fit-margin-bottom="0"
     inkscape:window-width="1920"
     inkscape:window-height="1018"
     inkscape:window-x="0"
     inkscape:window-y="0"
     inkscape:window-maximized="1"
     showguides="true"
     inkscape:guide-bbox="true">
    <sodipodi:guide
       position="103.76089,59.980737"
       orientation="1,0"
       id="guide2881"
       inkscape:locked="false" />
    <sodipodi:guide
       position="30.086801,12.150438"
       orientation="1,0"
       id="guide2883"
       inkscape:locked="false" />
  </sodipodi:namedview>
  <metadata
     id="metadata1302">
    <rdf:RDF>
      <cc:Work
         rdf:about="">
        <dc:format>image/svg+xml</dc:format>
        <dc:type
           rdf:resource="http://purl.org/dc/dcmitype/StillImage" />
        <dc:title></dc:title>
      </cc:Work>
    </rdf:RDF>
  </metadata>
  <g
     inkscape:label="Layer 1"
     inkscape:groupmode="layer"
     id="layer1"
     transform="translate(77.507177,-205.22893)">
    <g
       transform="matrix(0.26458333,0,0,0.26458333,-280.42407,102.75237)"
       id="g1078"
       style="stroke:#000000;stroke-opacity:1;fill:#c94328;fill-opacity:1">
      <path
         style="fill:#c94328;stroke:#000000;stroke-opacity:1;fill-opacity:1"
         inkscape:connector-curvature="0"
         d="m 1232.284,401.936 0.21,-0.434 -53.721,-14.188 -0.372,0.315 c -5.726,4.87 -18.8,5.608 -18.834,5.616 -0.132,-0.007 -13.2,-0.74 -18.933,-5.616 l -0.37,-0.315 -53.721,14.188 0.211,0.434 -40.527,41.974 29.097,29.603 21.85,-10.199 -0.073,126.273 h 124.835 V 463.348 l 21.777,10.165 29.098,-29.603 z"
         id="path1062" />
      <polygon
         points="1231.83,401.465 1272.811,443.91 1243.713,473.512 1220.607,462.728 1221.397,461.035 1243.305,471.262 1270.202,443.899 1230.485,402.763 "
         id="polygon1064"
         style="stroke:#000000;stroke-opacity:1;fill:#c94328;fill-opacity:1" />
      <rect
         x="1251.3051"
         y="433.65601"
         transform="matrix(0.7225,0.6914,-0.6914,0.7225,661.8044,-739.6237)"
         width="1.868"
         height="41.862"
         id="rect1066"
         style="stroke:#000000;stroke-opacity:1;fill:#c94328;fill-opacity:1" />
      <path
         inkscape:connector-curvature="0"
         d="m 1221.936,589.586 h -124.835 l 0.075,-128.068 c 8.52,-20.154 -9.948,-58.61 -10.136,-58.996 l -0.496,-1.021 53.721,-14.188 0.37,0.315 c 5.732,4.875 18.801,5.608 18.933,5.616 0.034,-0.007 13.108,-0.746 18.834,-5.616 l 0.372,-0.315 53.721,14.188 -0.496,1.021 c -0.188,0.385 -18.653,38.847 -10.136,58.996 l 0.073,0.363 z m -122.967,-1.867 h 121.099 v -125.65 c -7.988,-19.315 6.785,-52.918 9.766,-59.338 l -50.604,-13.366 c -6.354,4.996 -19.111,5.716 -19.662,5.744 -0.646,-0.027 -13.404,-0.748 -19.757,-5.744 l -50.607,13.366 c 2.983,6.42 17.754,40.023 9.766,59.338 v 125.65 z"
         id="path1068"
         style="stroke:#000000;stroke-opacity:1;fill:#c94328;fill-opacity:1" />
      <path
         inkscape:connector-curvature="0"
         d="m 1159.52,401.414 c -0.74,0 -18.237,-0.113 -29.068,-10.021 l 1.261,-1.379 c 10.287,9.412 27.633,9.532 27.808,9.532 0.172,0 17.52,-0.12 27.807,-9.532 l 1.26,1.379 c -10.832,9.908 -28.329,10.021 -29.068,10.021 z"
         id="path1070"
         style="stroke:#000000;stroke-opacity:1;fill:#c94328;fill-opacity:1" />
      <polygon
         points="1097.641,461.035 1098.431,462.728 1075.324,473.512 1046.228,443.91 1087.208,401.465 1088.552,402.763 1048.835,443.899 1075.731,471.262 "
         id="polygon1072"
         style="stroke:#000000;stroke-opacity:1;fill:#c94328;fill-opacity:1" />
      <rect
         x="1098.0341"
         y="580.71503"
         width="122.967"
         height="1.867"
         id="rect1074"
         style="stroke:#000000;stroke-opacity:1;fill:#c94328;fill-opacity:1" />
      <rect
         x="1045.8669"
         y="453.65302"
         transform="matrix(0.6916,0.7223,-0.7223,0.6916,657.3906,-630.3519)"
         width="41.862"
         height="1.869"
         id="rect1076"
         style="stroke:#000000;stroke-opacity:1;fill:#c94328;fill-opacity:1" />
    </g>
    <g
       transform="matrix(0.26458333,0,0,0.26458333,-280.42407,102.75237)"
       id="g1144"
       style="fill:#c94328;stroke:#000000;stroke-opacity:1;fill-opacity:1">
      <path
         style="fill:#c94328;stroke:#000000;stroke-opacity:1;fill-opacity:1"
         inkscape:connector-curvature="0"
         d="m 952.987,401.936 0.209,-0.434 -53.72,-14.188 -0.372,0.315 c -5.726,4.87 -18.8,5.608 -18.835,5.616 -0.131,-0.007 -13.199,-0.74 -18.932,-5.616 l -0.371,-0.315 -53.721,14.188 0.211,0.434 -40.526,41.974 29.098,29.603 21.85,-10.199 -0.072,126.273 H 942.639 V 463.348 l 21.778,10.165 29.098,-29.603 z"
         id="path1124" />
      <polygon
         points="952.533,401.465 993.514,443.91 964.416,473.512 941.311,462.728 942.1,461.035 964.007,471.262 990.905,443.899 951.188,402.763 "
         id="polygon1126"
         style="fill:#c94328;stroke:#000000;stroke-opacity:1;fill-opacity:1" />
      <rect
         x="972.008"
         y="433.65601"
         transform="matrix(0.7225,0.6914,-0.6914,0.7225,584.2963,-546.5222)"
         width="1.868"
         height="41.862999"
         id="rect1128"
         style="fill:#c94328;stroke:#000000;stroke-opacity:1;fill-opacity:1" />
      <path
         inkscape:connector-curvature="0"
         d="M 942.638,589.586 H 817.805 l 0.073,-128.068 c 8.52,-20.154 -9.947,-58.61 -10.136,-58.996 l -0.496,-1.021 53.721,-14.188 0.371,0.315 c 5.732,4.875 18.801,5.608 18.932,5.616 0.035,-0.007 13.109,-0.746 18.835,-5.616 l 0.372,-0.315 53.72,14.188 -0.496,1.021 c -0.188,0.385 -18.653,38.847 -10.135,58.996 l 0.072,0.363 z m -122.966,-1.867 h 121.099 v -125.65 c -7.989,-19.315 6.785,-52.918 9.766,-59.338 l -50.604,-13.366 c -6.354,4.996 -19.11,5.716 -19.662,5.744 -0.646,-0.027 -13.403,-0.748 -19.758,-5.744 l -50.605,13.366 c 2.982,6.42 17.754,40.023 9.766,59.338 v 125.65 z"
         id="path1130"
         style="fill:#c94328;stroke:#000000;stroke-opacity:1;fill-opacity:1" />
      <path
         inkscape:connector-curvature="0"
         d="m 880.223,401.414 c -0.345,0 -8.511,-0.035 -15.433,-3.051 l 0.746,-1.711 c 6.57,2.862 14.606,2.895 14.687,2.895 0.081,0 8.126,-0.038 14.683,-2.895 l 0.748,1.711 c -6.925,3.016 -15.089,3.051 -15.431,3.051 z"
         id="path1132"
         style="fill:#c94328;stroke:#000000;stroke-opacity:1;fill-opacity:1" />
      <polygon
         points="818.344,461.035 819.133,462.728 796.027,473.512 766.93,443.91 807.91,401.465 809.255,402.763 769.538,443.899 796.435,471.262 "
         id="polygon1134"
         style="fill:#c94328;stroke:#000000;stroke-opacity:1;fill-opacity:1" />
      <rect
         x="818.73798"
         y="580.71503"
         width="122.966"
         height="1.867"
         id="rect1136"
         style="fill:#c94328;stroke:#000000;stroke-opacity:1;fill-opacity:1" />
      <rect
         x="766.57001"
         y="453.65302"
         transform="matrix(0.6916,0.7223,-0.7223,0.6916,571.2311,-428.6085)"
         width="41.862"
         height="1.868"
         id="rect1138"
         style="fill:#c94328;stroke:#000000;stroke-opacity:1;fill-opacity:1" />
      <path
         inkscape:connector-curvature="0"
         d="m 880.223,416.62 -0.551,-0.401 c -12.888,-9.395 -19.535,-26.814 -19.813,-27.551 l 1.749,-0.657 c 0.064,0.173 6.538,17.122 18.614,26.289 12.085,-9.174 18.548,-26.115 18.611,-26.289 l 1.751,0.657 c -0.277,0.737 -6.928,18.156 -19.813,27.551 z"
         id="path1140"
         style="fill:#c94328;stroke:#000000;stroke-opacity:1;fill-opacity:1" />
      <path
         inkscape:connector-curvature="0"
         d="m 880.223,424.149 -0.447,-0.242 c -15.817,-8.604 -27.455,-32.034 -27.942,-33.026 l 1.676,-0.824 c 0.116,0.235 11.641,23.434 26.714,31.961 15.08,-8.533 26.597,-31.726 26.712,-31.961 l 1.676,0.824 c -0.488,0.992 -12.125,24.423 -27.942,33.026 z"
         id="path1142"
         style="fill:#c94328;stroke:#000000;stroke-opacity:1;fill-opacity:1" />
    </g>
    <path
       style="fill:#ffffff;fill-opacity:1;stroke:none;stroke-width:0.02147852"
       d="m -47.868041,217.57155 c -0.04216,0.003 -0.08588,0.0217 -0.114776,0.055 -0.03695,0.0426 -0.03147,0.0616 0.02016,0.0987 0.04765,0.0343 0.05876,0.0801 0.04566,0.17317 -0.0097,0.0688 -0.02187,0.24189 -0.0255,0.38393 -0.0062,0.24727 -0.02112,0.44343 -0.04024,0.51414 -0.0048,0.0182 -0.008,0.0599 -0.0069,0.0926 0.0021,0.0532 -0.01255,0.0618 -0.13424,0.092 -0.04546,0.0112 -0.09051,0.0234 -0.135585,0.0356 -0.0048,-0.0228 -0.0087,-0.0464 -0.01344,-0.0691 -0.0077,-0.0375 -0.01906,-0.0752 -0.02352,-0.0852 -0.0048,-0.01 -0.0314,-0.11543 -0.06177,-0.23291 -0.01666,-0.0644 -0.03709,-0.14441 -0.05704,-0.21814 -0.01639,-0.0607 -0.03236,-0.11553 -0.0436,-0.15572 -0.03161,-0.11263 -0.03366,-0.16564 -0.0034,-0.16982 0,-3e-5 0.0014,6e-5 0.0014,0 0.04566,-0.007 0.04669,-0.0985 0,-0.14229 -0.0055,-0.005 -0.01289,-0.009 -0.02146,-0.0114 -0.0508,-0.0169 -0.147665,0.003 -0.169145,0.0403 -0.03017,0.0523 -0.0097,0.12071 0.03689,0.12686 0.02708,0.003 0.04751,0.16902 0.05841,0.38258 0.0109,0.21357 0.01447,0.47573 0.0069,0.67859 -0.0027,0.0803 -0.0034,0.2107 0,0.28996 0.0034,0.0793 0.0021,0.22311 -0.0034,0.32016 -0.01049,0.19438 -0.01351,0.33219 -0.01344,0.42957 2.1e-5,0.0974 0.0021,0.15466 0.0069,0.18928 0.0027,0.0219 -0.01735,0.039 -0.0604,0.049 -0.07352,0.017 -0.111088,0.0272 -0.122154,0.0631 -0.01104,0.0359 0.0041,0.0969 0.0349,0.21478 0.03058,0.11655 0.04134,0.19083 0.03558,0.21479 -0.0055,0.024 -0.02811,-0.002 -0.06712,-0.0893 -0.02585,-0.0577 -0.06081,-0.1066 -0.07585,-0.10874 -0.01502,-0.002 -0.03312,-0.0236 -0.04025,-0.0483 -0.0062,-0.0204 -0.05204,-0.095 -0.102024,-0.16311 -0.04998,-0.0681 -0.103601,-0.13012 -0.115448,-0.13356 -0.0062,-0.002 -0.01392,0.0566 -0.01879,0.12552 -0.0048,0.0689 -0.0075,0.14778 -0.0034,0.18793 0.0055,0.0514 -0.0041,0.0635 -0.07719,0.094 -0.04621,0.0193 -0.121844,0.0369 -0.169144,0.0383 -0.08375,0.003 -0.0884,-1.8e-4 -0.140952,-0.12552 -0.06829,-0.16285 -0.177091,-0.33932 -0.189281,-0.30674 -0.0048,0.0136 -0.141803,-0.10311 -0.31345,-0.25035 -0.171646,-0.14725 -0.332173,-0.26161 -0.347009,-0.26312 -0.01481,-0.001 -0.02311,0.19508 -0.0048,0.43293 0.01536,0.198 0.03078,0.37034 0.03154,0.4289 0,0.0118 -1.78e-4,0.0182 -0.0014,0.0202 -0.0078,0.0113 0.02009,0.0844 0.06308,0.16243 0.1154,0.20954 0.117601,0.23414 0.04024,0.3356 -0.08397,0.11017 -0.148823,0.15957 -0.175856,0.12418 -0.01111,-0.0146 -0.08483,-0.0701 -0.164449,-0.12082 -0.04827,-0.0307 -0.09652,-0.0608 -0.145648,-0.0906 0.01481,0.0553 0.03106,0.10973 0.04696,0.16445 0.02633,0.0903 0.05766,0.17374 0.06849,0.18727 0.01076,0.0135 -0.0021,0.0652 -0.02818,0.1141 -0.01577,0.0296 -0.03188,0.0595 -0.04696,0.0893 l 0.159073,0.18928 c 0.135646,0.16174 0.156605,0.19457 0.132903,0.21479 -0.01241,0.0106 -0.03085,0.001 -0.09397,-0.0671 -0.06314,-0.0685 -0.171366,-0.1959 -0.360441,-0.42756 -0.27642,-0.3387 -0.420176,-0.5365 -0.414129,-0.56314 0.0069,-0.03 -0.0027,-0.0374 -0.03222,-0.0269 -0.02948,0.0105 -0.06397,-0.0184 -0.125519,-0.10403 -0.02832,-0.0394 -0.05574,-0.0779 -0.0839,-0.11746 -0.06541,0.008 -0.132129,0.0174 -0.198008,0.0282 -0.06589,0.0108 -0.131073,0.0224 -0.197337,0.0356 -0.01172,0.0644 -0.02269,0.12856 -0.03222,0.19263 -0.01412,0.0952 -0.01844,0.14443 -0.008,0.18123 0.01042,0.0368 0.03654,0.0623 0.0886,0.11208 0.0578,0.0554 0.106864,0.12181 0.109408,0.14767 0.0027,0.0315 0.01371,0.041 0.03353,0.0315 0.01892,-0.009 0.201744,0.15146 0.504073,0.44097 l 0.474539,0.45441 c -0.03284,0.0315 -0.06541,0.0635 -0.09733,0.096 -0.03188,0.0325 -0.06301,0.0652 -0.09396,0.0987 -0.06184,-0.0498 -0.123922,-0.0994 -0.185928,-0.14901 -0.264086,-0.21121 -0.42501,-0.30494 -0.472529,-0.27989 -0.03922,0.0206 0.108373,0.186 0.296673,0.33493 0.05882,0.0465 0.103937,0.0976 0.10068,0.11209 -0.0027,0.0113 -0.02605,0.0327 -0.05704,0.0557 -0.06211,0.0461 -0.153389,0.10216 -0.1678,0.092 -0.0055,-0.004 -0.02413,0.0133 -0.05368,0.0537 -0.02955,0.0404 -0.07086,0.10371 -0.120816,0.19129 -0.04978,0.0872 -0.09608,0.1765 -0.140281,0.26647 -0.03551,-0.013 -0.07181,-0.0275 -0.107392,-0.0403 -0.09797,-0.0352 -0.300053,-0.13347 -0.476554,-0.22955 -0.176515,-0.0961 -0.326977,-0.1893 -0.321512,-0.20807 0.0073,-0.025 -0.0027,-0.0317 -0.03894,-0.0235 -0.02722,0.006 -0.09869,-0.0186 -0.159073,-0.055 -0.0532,-0.0321 -0.08259,-0.0478 -0.117464,-0.047 -0.0349,6.9e-4 -0.07655,0.0173 -0.154377,0.0551 -0.08831,0.0428 -0.165312,0.079 -0.172497,0.0758 -0.03209,-0.0142 -0.04182,0.0689 -0.0168,0.23961 0.0091,0.0615 0.01933,0.12211 0.03017,0.18257 0.04861,0.0152 0.09778,0.0296 0.146328,0.045 0.108229,0.0344 0.144093,0.0574 0.143633,0.0906 -5.28e-4,0.0356 0.0082,0.0402 0.03695,0.0188 0.02729,-0.0203 0.180299,0.032 0.632274,0.21411 0.328403,0.13232 0.595622,0.24468 0.593339,0.25036 -0.0021,0.005 -0.03078,0.041 -0.06376,0.0785 -0.01995,0.0228 -0.04079,0.0452 -0.0604,0.0685 l -0.293313,-0.10336 -0.291305,-0.10404 c -0.03346,0.0942 -0.06472,0.18877 -0.09262,0.28459 -0.01069,0.0367 -0.01927,0.0704 -0.02688,0.10068 -0.03195,0.12681 -0.04024,0.19476 -0.03023,0.20271 0.01035,0.008 0.01906,0.06 0.02016,0.11276 0.0014,0.0528 0.01296,0.0978 0.0255,0.10202 0.01255,0.004 0.03085,0.0119 0.04024,0.0154 0.0095,0.003 0.0086,0.0675 0,0.14364 -0.0055,0.0462 -0.0095,0.0933 -0.01344,0.13961 0.07053,0.0115 0.140198,0.0223 0.21076,0.0335 0.07056,0.0113 0.140836,0.0225 0.211432,0.0335 -0.0034,0.0278 -0.0071,0.0553 -0.01008,0.0832 -0.0048,0.0461 -0.01419,0.0834 -0.02352,0.0825 -0.0093,-6.8e-4 -0.0994,-0.0293 -0.198008,-0.0671 -0.0986,-0.0378 -0.189569,-0.0723 -0.204042,-0.0738 -0.01975,-0.002 -0.03263,0.0391 -0.0423,0.16915 -0.0084,0.11357 -0.01783,0.17143 -0.03154,0.16645 -0.01817,-0.007 -0.03915,0.0417 -0.05574,0.13022 -0.01652,0.0885 -0.02694,0.2166 -0.02482,0.36714 0.0021,0.12775 0.0034,0.2018 0.0014,0.245 -0.0027,0.0432 -0.0096,0.0559 -0.02482,0.0638 -0.02201,0.0112 -0.0301,0.0298 -0.01879,0.13424 0.0048,0.0448 0.01447,0.10481 0.02886,0.18726 0.01762,0.10087 0.03833,0.20232 0.06177,0.30205 l 0.04566,-0.0114 c 0.0229,-0.005 0.03558,-0.008 0.04833,0.0195 0.01275,0.0273 0.02571,0.0837 0.05704,0.19465 0.04648,0.16461 0.06383,0.23661 0.05368,0.27183 -0.0055,0.0187 -0.0034,0.0475 0.01138,0.10203 0.01508,0.0545 0.04333,0.13429 0.09262,0.2517 0.06198,0.14767 0.09875,0.22072 0.122161,0.2564 0.02345,0.0357 0.03407,0.0343 0.05368,0.0269 0.02215,-0.008 0.0519,-0.0206 0.06513,-0.0255 0.01323,-0.005 0.0423,0.005 0.06575,0.0221 0.02249,0.0159 0.03977,0.0207 0.08726,-0.0121 0.04751,-0.0328 0.124889,-0.10369 0.276537,-0.23089 0.05046,-0.0423 0.0751,-0.0529 0.08524,-0.0369 0.0079,0.0125 0.03517,0.0549 0.0591,0.094 0.02386,0.039 0.06923,0.10808 0.102024,0.15236 0.0082,0.011 0.0146,0.0214 0.02146,0.0315 0.04607,0.0681 0.06465,0.11748 0.0436,0.13089 -0.0079,0.005 -0.04635,-0.042 -0.08323,-0.10404 l -0.0021,-0.001 c -0.02187,-0.0366 -0.04292,-0.0735 -0.06376,-0.11075 l -0.132232,0.0738 c -0.08905,0.0496 -0.128433,0.0816 -0.118801,0.0987 0.01035,0.0182 -0.02701,0.0459 -0.13424,0.0926 -0.143099,0.0624 -0.15001,0.0652 -0.122832,0.11209 0.01961,0.0339 0.01844,0.0521 -0.0048,0.0584 -0.01364,0.003 -0.0277,-0.002 -0.05032,-0.0282 -0.02269,-0.026 -0.05416,-0.0716 -0.10068,-0.14901 -0.07928,-0.13199 -0.124738,-0.21357 -0.15908,-0.25841 -0.03435,-0.0448 -0.05581,-0.0526 -0.08054,-0.0416 -0.02866,0.0128 -0.04991,6.9e-4 -0.07182,-0.0389 -0.02365,-0.0431 -0.04415,-0.0534 -0.09062,-0.0416 -0.02023,0.005 -0.04216,0.01 -0.06239,0.0147 0.04086,0.0991 0.08635,0.19883 0.132903,0.29533 0.04655,0.0965 0.09487,0.19109 0.146993,0.28459 l -0.09062,0.0503 c -0.07178,0.04 -0.08594,0.0605 -0.07182,0.10068 0.0085,0.0241 0.02242,0.0586 0.0436,0.10068 0.04141,0.0821 0.106323,0.19302 0.18928,0.31547 0.08297,0.12245 0.185003,0.25708 0.29533,0.38393 0.09923,0.11407 0.202546,0.22245 0.310097,0.32821 0.04984,-0.0512 0.09901,-0.10129 0.149008,-0.15236 0.0894,-0.0913 0.158031,-0.14581 0.169144,-0.13424 0.01022,0.0107 0.03579,0.031 0.05704,0.0436 0.03401,0.0202 0.01111,0.0523 -0.200689,0.27519 -0.203301,0.21393 -0.23597,0.25938 -0.208072,0.28795 0.01817,0.0186 0.04539,0.0549 0.06177,0.0819 0.01639,0.027 0.04635,0.0581 0.06575,0.0691 0.0194,0.011 0.04744,0.0282 0.06177,0.0383 0.01433,0.01 0.05354,0.0249 0.08726,0.0322 0.05382,0.0116 0.08766,-0.0164 0.275193,-0.23627 l 0.212776,-0.2517 c 0.04127,0.035 0.08318,0.0703 0.125513,0.10404 0.04251,0.0339 0.08602,0.0644 0.116113,0.0852 0.01933,0.0134 0.0327,0.0229 0.03826,0.0255 0.01419,0.007 0.06835,0.091 0.125513,0.18593 0.03469,0.0575 0.06999,0.11434 0.107392,0.17116 -0.0205,0.0329 -0.0399,0.0657 -0.0604,0.0987 -0.03387,0.0543 -0.09602,0.20498 -0.135585,0.33695 -0.06136,0.20467 -0.08977,0.313 -0.115441,0.3658 -0.02571,0.0528 -0.04827,0.0502 -0.08927,0.0396 -0.08389,-0.0217 -0.08905,-0.0378 -0.04498,-0.17585 0.0097,-0.0304 0.02029,-0.0603 0.03023,-0.0906 -0.03113,0.0234 -0.06246,0.0461 -0.09397,0.0691 -0.06835,0.05 -0.108085,0.0603 -0.142296,0.0382 -0.123737,-0.0797 -0.231514,-0.14803 -0.290633,-0.17921 -0.01954,-0.0104 -0.03387,-0.0157 -0.04162,-0.0168 -0.04319,-0.006 -0.04353,0.0156 0.0034,0.0671 0.02818,0.0309 0.07424,0.0729 0.1376,0.12417 0.05656,0.0457 0.113028,0.0897 0.171153,0.13357 -0.03161,0.0601 -0.06266,0.11956 -0.09397,0.17988 -0.05163,0.0995 -0.105301,0.22462 -0.119473,0.27788 -0.0086,0.0323 -0.01652,0.0649 -0.02482,0.0973 0.02454,-0.0333 0.04731,-0.0653 0.07182,-0.0987 0.04038,-0.055 0.09017,-0.11679 0.109408,-0.13559 0.01927,-0.0188 0.06781,-0.0782 0.108736,-0.13289 0.02482,-0.0331 0.05053,-0.0675 0.07517,-0.10068 0.04162,0.0187 0.08233,0.0379 0.124176,0.0557 0.09735,0.0414 0.14473,0.0636 0.18928,-0.005 0.04456,-0.069 0.08465,-0.22999 0.186593,-0.55106 0.03435,-0.10811 0.05457,-0.16556 0.07518,-0.20001 0.02057,-0.0345 0.0423,-0.0461 0.08054,-0.0638 0.06465,-0.03 0.106776,-0.0285 0.219481,0 0.07713,0.0195 0.143922,0.0274 0.147672,0.0202 0.0034,-0.007 0.01399,-0.008 0.02352,-0.001 0.0095,0.007 0.0545,0.0188 0.09866,0.0269 0.04415,0.008 0.180984,0.0633 0.306737,0.11544 0.06458,0.0268 0.129311,0.0518 0.194656,0.0759 l 1.163196,-2.58346 c -1.030039,-0.27555 -1.788758,-1.21485 -1.788758,-2.33177 0,-1.33322 1.081088,-2.41432 2.41432,-2.41432 1.333225,0 2.41432,1.0811 2.41432,2.41432 0,1.14392 -0.79653,2.10086 -1.864606,2.34989 l 0.630259,1.39812 c 0.08726,-0.0265 0.173868,-0.0546 0.258416,-0.0873 -0.0591,0.09 -0.118286,0.17915 -0.179216,0.26512 l 0.455753,1.01084 c 0.05457,-0.0327 0.108914,-0.0658 0.162426,-0.10068 0.08092,-0.0528 0.160643,-0.1086 0.239624,-0.16579 -0.0092,0.0217 -0.01865,0.0425 -0.02818,0.0638 -0.0095,0.0213 -0.01824,0.0429 -0.02818,0.0638 0.01522,-0.0243 0.02832,-0.0489 0.04299,-0.0738 0.04456,-0.076 0.130265,-0.15964 0.117457,-0.10874 -0.0041,0.0152 0.01104,0.003 0.03222,-0.0289 0.03209,-0.0477 0.04306,-0.0565 0.06849,-0.0517 0.02125,0.004 0.03263,-0.003 0.03695,-0.0235 0.0074,-0.0353 0.103155,-0.11961 0.132225,-0.1141 0.01131,0.002 0.02989,0.0254 0.04024,0.0503 0.0093,0.0222 0.01234,0.0343 -0.0069,0.057 -0.01906,0.0228 -0.05978,0.0566 -0.143641,0.11881 -0.08474,0.0629 -0.128694,0.0918 -0.149673,0.10068 -0.02098,0.009 -0.01865,-0.003 -0.01474,-0.0289 0.0027,-0.0171 0.0041,-0.0344 0.0069,-0.0517 -0.007,0.0206 -0.01488,0.0414 -0.02215,0.0618 -0.01207,0.0335 -0.03682,0.0703 -0.05505,0.0826 -0.03469,0.0233 -0.03401,0.0411 0.0014,0.0919 0.01618,0.0318 0.02132,0.0442 0.02215,0.0483 -0.0041,-0.003 6.2e-5,0.003 0,6.9e-4 0.0014,6.8e-4 0.0021,0.002 0.0048,0.005 l 0.0839,0.16914 0.08255,0.16981 c 0.03942,-0.0182 0.07975,-0.0367 0.118808,-0.0557 0.03222,-0.0157 0.107845,-0.0546 0.202704,-0.10738 0.09486,-0.0528 0.208526,-0.11904 0.316809,-0.18928 0.0062,-0.004 0.01234,-0.009 0.01879,-0.0134 0.125389,-0.0753 0.247899,-0.15488 0.367146,-0.23963 l 0.06513,0.0906 c 0.03647,0.0518 0.0554,0.0785 0.09396,0.0738 0.03853,-0.005 0.096,-0.0393 0.208073,-0.1141 0.04765,-0.0317 0.0955,-0.0642 0.142303,-0.0973 l 0.275186,0.33561 c 0.205372,0.25035 0.286471,0.3311 0.321513,0.32016 0.02578,-0.008 0.162096,-0.0877 0.300025,-0.18324 0.12288,-0.0851 0.185263,-0.13256 0.241633,-0.18726 0.05636,-0.0547 0.106645,-0.11704 0.198001,-0.24029 0.06218,-0.0839 0.122442,-0.16819 0.18056,-0.25439 l -0.940356,-0.78665 -0.940362,-0.78732 c 0.0144,-0.0172 0.02948,-0.035 0.0436,-0.0524 0.01412,-0.0174 0.02777,-0.0341 0.04162,-0.0517 0.131272,0.0967 0.262057,0.1922 0.393994,0.28796 0.217706,0.15799 0.615642,0.45617 0.883307,0.66381 l 0.486618,0.37722 c 0.0155,-0.02 0.03174,-0.0402 0.04696,-0.0604 0.08416,-0.11105 0.163934,-0.22435 0.240961,-0.3403 0.09104,-0.13699 0.177639,-0.27697 0.258416,-0.42017 -0.01467,-0.01 -0.02893,-0.0193 -0.0436,-0.0289 -0.0242,-0.0158 -0.07414,-0.0416 -0.110752,-0.0584 -0.06698,-0.0307 -0.09704,-0.14514 -0.05032,-0.18794 0.01255,-0.0115 0.01309,-0.025 0.0034,-0.0302 -0.01097,-0.005 0.02907,-0.0939 0.09598,-0.2329 0.04354,-0.0904 0.06719,-0.14848 0.07853,-0.18459 0.01131,-0.0361 0.01049,-0.0505 0,-0.055 -0.0144,-0.006 -0.01741,-0.0319 -0.0069,-0.057 0.01687,-0.0397 -0.05108,-0.0752 -0.516154,-0.26848 l -0.536297,-0.22284 c 0.02386,-0.0574 0.04532,-0.11634 0.06712,-0.17452 0.02907,-0.0778 0.04258,-0.1229 0.04628,-0.15101 0.0034,-0.0281 -0.0021,-0.0386 -0.0168,-0.0503 -0.02688,-0.0214 -0.02681,-0.0419 0,-0.11343 0.01817,-0.0483 0.03003,-0.0972 0.02687,-0.10605 -0.0034,-0.009 -0.08569,-0.0411 -0.182568,-0.0718 -0.09688,-0.0307 -0.173772,-0.0629 -0.17116,-0.0725 0.0014,-0.006 0.07356,0.008 0.181224,0.0336 0.06177,0.0147 0.136469,0.0326 0.214785,0.0537 0.256195,0.0691 0.394776,0.0973 0.404066,0.0792 0.0078,-0.0152 0.02605,-0.0258 0.04024,-0.0222 0.01488,0.004 0.0301,-0.0111 0.04834,-0.0517 0.01824,-0.0406 0.0397,-0.10752 0.06376,-0.20807 0.01138,-0.0477 0.02208,-0.0943 0.03222,-0.1423 0.04107,0.005 0.08105,0.009 0.12216,0.0134 0.118397,0.0129 0.210185,-0.0147 0.249682,-0.0758 0.01022,-0.0158 0.02804,-0.0946 0.03826,-0.17586 0.01508,-0.12016 0.02324,-0.14699 0.05032,-0.14431 0.04079,0.004 0.08161,-0.0791 0.0839,-0.17586 6.85e-4,-0.0395 0.0041,-0.13723 0.0055,-0.21613 0.0021,-0.12934 -0.0041,-0.1439 -0.04566,-0.1443 -0.0253,-1.8e-4 -0.0495,-0.0172 -0.05368,-0.0383 -0.0055,-0.0286 -0.148398,-0.0407 -0.567842,-0.047 -0.187216,-0.003 -0.374591,-0.007 -0.561794,-0.009 -0.0082,-0.0478 -0.01728,-0.095 -0.02688,-0.1423 -0.01584,-0.078 -0.03812,-0.18183 -0.04833,-0.2329 -0.0062,-0.031 -0.01337,-0.0632 -0.02016,-0.094 0.371383,-0.0412 0.743595,-0.082 1.114868,-0.12417 0.37128,-0.0422 0.741689,-0.0857 1.112859,-0.12888 -0.0069,-0.0687 -0.01481,-0.13749 -0.02352,-0.20605 -0.01721,-0.13543 -0.03675,-0.26991 -0.06177,-0.40407 -0.03764,-0.20207 -0.08576,-0.40193 -0.140953,-0.60005 l -1.208836,0.35036 -1.210181,0.35037 c -0.0095,-0.0629 -0.0073,-0.13688 -0.01474,-0.18055 0.0194,-0.008 0.518403,-0.25101 1.109493,-0.494 0.593442,-0.24398 0.615758,-0.25388 0.705441,-0.29467 0.742067,-0.32117 0.780625,-1.00777 0.623547,-1.35113 -0.157078,-0.34336 -0.672574,-0.6714 -1.290725,-0.32218 -0.132759,0.0755 -0.193428,0.10164 -0.76249,0.51683 -0.344905,0.25163 -0.688829,0.50162 -1.034324,0.75242 -0.01625,-0.0225 -0.03366,-0.0448 -0.05032,-0.0671 -0.02749,-0.0368 -0.04689,-0.0758 -0.0436,-0.0886 0.0034,-0.0128 -0.0088,-0.0418 -0.0255,-0.0624 -0.02873,-0.0357 -0.02139,-0.0422 0.132897,-0.16042 0.152114,-0.11662 0.160478,-0.12808 0.130216,-0.16444 -0.02434,-0.0292 -0.02283,-0.0507 0.0087,-0.0859 0.02304,-0.0257 0.03154,-0.0521 0.0181,-0.0584 -0.01337,-0.006 -0.0093,-0.0147 0.0087,-0.0188 0.02338,-0.005 0.02084,-0.0184 -0.0069,-0.0496 -0.02119,-0.024 -0.03874,-0.0345 -0.04024,-0.0222 -0.0021,0.0167 -0.04059,0.0317 -0.08189,0.0389 -0.04127,0.007 -0.08663,0.007 -0.09934,-0.007 -0.01645,-0.0176 -0.05656,0.0129 -0.161088,0.12015 -0.04655,0.0478 -0.0922,0.0953 -0.138944,0.14296 -0.01687,-0.018 -0.03449,-0.036 -0.05169,-0.0537 -0.02838,-0.0292 -0.05834,-0.0463 -0.06575,-0.0389 -0.0074,0.007 -0.04696,-0.0207 -0.0886,-0.0604 -0.02523,-0.0241 -0.04943,-0.047 -0.07518,-0.0705 0.106433,-0.11023 0.213092,-0.22062 0.320162,-0.33024 0.289851,-0.29669 0.318975,-0.33138 0.298017,-0.37184 -0.01337,-0.0257 -0.0077,-0.0635 0.01344,-0.0873 0.02393,-0.0269 0.02674,-0.0603 0.0069,-0.0953 -0.017,-0.0297 -0.02118,-0.0642 -0.01008,-0.0772 0.02359,-0.0276 0.02235,-0.0622 -0.0069,-0.10739 -0.02907,-0.0452 -0.08711,-0.10102 -0.179209,-0.17116 -0.0034,-0.003 -0.0069,-0.005 -0.01008,-0.008 -0.08022,-0.0607 -0.123641,-0.0901 -0.149002,-0.10068 -0.02537,-0.0105 -0.03305,-0.003 -0.04566,0.0147 -0.017,0.0242 -0.04628,0.0305 -0.08188,0.0154 -0.05286,-0.0223 -0.06547,-0.01 -0.244992,0.25439 -0.162693,0.23947 -0.238774,0.35289 -0.284586,0.4007 -0.0458,0.0478 -0.06259,0.0307 -0.109408,0.0101 -0.09075,-0.04 -0.09767,-0.0557 -0.06712,-0.15571 0.01124,-0.0368 0.01207,-0.0796 0.0021,-0.094 -0.01611,-0.023 -0.0084,-0.0495 0.03826,-0.14766 0.02036,-0.0428 -0.02962,-0.0229 -0.08054,0.0336 -0.04648,0.0516 -0.05252,0.052 -0.136922,0.0101 -0.07002,-0.0348 -0.08967,-0.052 -0.08592,-0.0819 0.0027,-0.021 -0.01028,-0.0448 -0.02818,-0.0537 -0.01789,-0.009 -0.02427,-0.032 -0.01543,-0.0503 0.0088,-0.0183 0.0071,-0.0428 -0.0034,-0.0551 -0.01042,-0.0122 -0.0253,-0.007 -0.03353,0.0101 -0.0098,0.0202 -0.01796,0.0199 -0.02352,0.001 -0.0041,-0.0133 -0.04367,-0.0405 -0.116785,-0.0772 -0.07308,-0.0367 -0.179065,-0.0829 -0.313457,-0.12888 -0.08945,-0.0306 -0.109435,-0.0282 -0.119472,0.002 -0.0088,0.0265 -0.02948,0.0292 -0.07518,0.0147 -0.04504,-0.0143 -0.05807,-0.0281 -0.05032,-0.0537 0.0062,-0.0195 1.57e-4,-0.0447 -0.01207,-0.0551 -0.01337,-0.0114 -0.03065,0.0104 -0.0436,0.0551 -0.01831,0.0629 -0.03147,0.0731 -0.08524,0.0685 -0.01262,-0.001 -0.02434,-0.002 -0.0349,-0.003 -0.108681,-0.0125 -0.114721,-0.0405 -0.08592,-0.19264 0.01851,-0.0979 0.03949,-0.15197 0.05704,-0.14766 0.03305,0.008 0.06349,-0.095 0.03222,-0.11209 -0.01598,-0.009 -0.02173,-0.15946 -0.0255,-0.34366 -0.0034,-0.1842 -0.0062,-0.40207 0.0034,-0.54636 0.0092,-0.13712 0.01481,-0.32044 0.01344,-0.40607 -0.0027,-0.16433 0.01063,-0.39609 0.03017,-0.58999 0.01961,-0.1939 0.04744,-0.34906 0.07383,-0.35843 0.06907,-0.0245 0.05697,-0.11636 -0.02215,-0.15572 -0.05121,-0.0255 -0.07765,-0.0269 -0.126863,-0.005 -0.06685,0.0293 -0.06692,0.11427 -0.0021,0.14565 0.02742,0.0133 0.017,0.0646 -0.03023,0.1678 -0.03716,0.0812 -0.05882,0.15497 -0.05032,0.16445 0.0077,0.009 -0.02681,0.14185 -0.06513,0.27653 -0.03826,0.13468 -0.07982,0.27079 -0.09397,0.28862 -0.01316,0.0166 -0.0706,0.0105 -0.127535,-0.005 -0.05691,-0.0159 -0.114591,-0.0415 -0.127522,-0.0651 -0.01309,-0.0238 -0.02441,-0.15602 -0.03359,-0.32016 -0.0092,-0.16413 -0.0157,-0.36036 -0.01344,-0.51011 0.0014,-0.10504 -0.0079,-0.223 -0.02016,-0.26311 -0.01591,-0.0522 -0.0055,-0.0795 0.03894,-0.0953 0.07476,-0.0268 0.06095,-0.13924 -0.02215,-0.16108 -0.07108,-0.0187 -0.137792,0.007 -0.170488,0.0436 -0.0327,0.0365 -0.03154,0.0825 0.03353,0.10538 0.04182,0.0147 0.04518,0.051 0.01474,0.15974 -0.0216,0.0772 -0.06074,0.26275 -0.08524,0.41212 -0.02448,0.14937 -0.04909,0.29315 -0.05704,0.32016 -0.008,0.027 -0.03092,0.11848 -0.05032,0.20136 -0.01947,0.0829 -0.03867,0.16232 -0.0423,0.17788 -0.0034,0.0156 -0.01213,0.0769 -0.0181,0.13692 -0.0062,0.06 -0.02084,0.11 -0.0349,0.10941 -0.01405,-5.3e-4 -0.05821,-0.0825 -0.100681,-0.17989 -0.02571,-0.059 -0.05334,-0.11713 -0.08054,-0.17585 -0.01454,0.0223 -0.02804,0.0448 -0.0423,0.0671 -0.02352,0.0369 -0.06212,0.11509 -0.08524,0.17451 -0.0445,0.11448 -0.09491,0.14439 -0.10068,0.057 -0.0021,-0.0288 -0.0084,-0.0733 -0.01474,-0.0993 -0.0062,-0.026 -0.02386,-0.12682 -0.04024,-0.22418 -0.01645,-0.0974 -0.03819,-0.19572 -0.04566,-0.21814 -0.01892,-0.0568 -0.07005,-0.36475 -0.09866,-0.57992 -0.01316,-0.099 -0.03723,-0.21325 -0.05368,-0.25305 -0.02022,-0.0488 -0.01577,-0.0778 0.0181,-0.0893 0.06102,-0.0206 0.07592,-0.0955 0.0255,-0.13893 -0.02016,-0.0173 -0.04669,-0.027 -0.07517,-0.0282 h -6.85e-4 c -0.0062,-1.7e-4 -0.01145,-3.5e-4 -0.01748,0 z m -0.159745,1.46188 c 0.024,-0.002 0.03545,0.0128 0.02688,0.0363 -0.02215,0.0603 -0.07187,0.0727 -0.06914,0.0168 0.0014,-0.027 0.01988,-0.0509 0.0423,-0.053 z m 1.343077,0.0161 c 0.02557,0.003 0.06061,0.0296 0.05972,0.0591 -6.86e-4,0.0228 -0.0034,0.0407 -0.0069,0.0403 -0.02516,-0.003 -0.0808,-0.0597 -0.07853,-0.0806 0.0014,-0.0108 0.0062,-0.0164 0.01474,-0.0181 0.0034,-6.8e-4 0.0071,-0.001 0.01076,-6.8e-4 z m -1.506181,0.0202 c 0.0146,-0.002 0.02441,0.0314 0.02215,0.0738 -0.0021,0.0424 -0.0095,0.0783 -0.0168,0.0792 -0.0073,6.9e-4 -0.01844,-0.0322 -0.02352,-0.0738 -0.0048,-0.0416 0.0034,-0.0775 0.0181,-0.0792 z m 1.693446,0.0202 c 0.01467,0.002 0.02393,0.0244 0.02016,0.0503 -0.0041,0.0259 -0.02201,0.0462 -0.04024,0.0436 -0.01824,-0.003 -0.02756,-0.0263 -0.02016,-0.0517 0.0074,-0.0254 0.02564,-0.0444 0.04024,-0.0423 z m -0.0436,0.12417 c 6.85e-4,-3.6e-4 0.0014,-6.8e-4 0.0021,0 0.0021,0.001 0.0034,0.005 0.0048,0.0101 0.0062,0.0195 6.85e-4,0.0455 -0.01008,0.057 -0.01083,0.0115 -0.01501,-0.004 -0.01008,-0.0349 0.0027,-0.0155 0.0062,-0.0264 0.01008,-0.0302 6.86e-4,-6.9e-4 0.0027,-0.001 0.0034,-0.002 z m -1.174605,2.58749 0.03826,0.25439 -0.204049,0.0302 -0.01543,-0.10202 -0.173168,0.0255 0.02955,0.20069 0.218816,-0.0329 0.02283,0.15303 -0.218145,0.0329 0.02146,0.14699 0.117463,-0.0188 0.02352,0.1537 -0.428898,0.0644 -0.02283,-0.1537 0.07182,-0.0101 -0.07584,-0.50004 -0.07115,0.0108 -0.02283,-0.15236 z m 0.514139,0.21814 c 0.0069,-1.7e-4 0.01399,-1.6e-4 0.02146,0 l -0.0048,0.20874 c -0.104753,-0.002 -0.164825,0.0231 -0.167129,0.12552 l -0.0027,0.12015 0.05773,0.001 -0.0027,0.15303 -0.329561,-0.008 0.0034,-0.15236 0.05101,0.001 0.0069,-0.27854 -0.05032,-0.001 0.0034,-0.15102 0.218809,0.005 0.03353,0.0752 c 0.02955,-0.0518 0.05876,-0.0962 0.161089,-0.0993 z m 0.357753,0.0671 c 0.02084,5.3e-4 0.04216,0.003 0.06376,0.007 0.135988,0.0265 0.225836,0.11637 0.240296,0.21881 0.0062,0.0427 0.0021,0.13352 -0.0349,0.19398 l -0.359768,-0.0705 c 6.85e-4,0.0321 0.0034,0.0981 0.09934,0.11678 0.03887,0.008 0.09877,0.0159 0.170482,-0.0235 l 0.0745,0.12955 c -0.0988,0.0567 -0.19528,0.0647 -0.314122,0.0416 -0.1417,-0.0276 -0.284339,-0.14909 -0.241633,-0.36849 0.03188,-0.16398 0.156009,-0.2494 0.302042,-0.24566 z m 0.01611,0.16109 c -0.05217,0.003 -0.07502,0.0519 -0.08188,0.0765 l 0.173169,0.0335 c 0.0073,-0.0437 0.0062,-0.0938 -0.06712,-0.10806 -0.0087,-0.002 -0.01673,-0.003 -0.0242,-0.002 z m 0.58261,0.0248 c 0.04902,-0.003 0.100845,0.007 0.151689,0.0275 0.128227,0.0524 0.199077,0.15847 0.193305,0.26177 -0.0027,0.043 -0.02407,0.1304 -0.07182,0.18257 l -0.338961,-0.13827 c -0.0055,0.0317 -0.01604,0.0959 0.0745,0.1329 0.03661,0.015 0.09448,0.0354 0.172504,0.0108 l 0.04696,0.14163 c -0.107948,0.0363 -0.204076,0.0257 -0.316137,-0.0202 -0.133617,-0.0546 -0.249737,-0.20188 -0.16512,-0.40876 0.04971,-0.1215 0.145128,-0.1842 0.253048,-0.18996 z m 0.06445,0.1678 c -0.0034,-7e-5 -0.0069,1.8e-4 -0.01008,6.9e-4 -0.03942,0.005 -0.06397,0.0395 -0.07383,0.059 l 0.162433,0.0671 c 0.0157,-0.0414 0.02537,-0.0906 -0.0436,-0.1188 -0.01234,-0.005 -0.02427,-0.008 -0.0349,-0.008 z m -3.052635,0.0604 c 0.07145,-5.2e-4 0.140062,0.0279 0.188609,0.10807 l 0.117464,0.19398 0.05972,-0.0356 0.07718,0.12753 -0.212769,0.12887 -0.05169,-0.0302 c -0.0062,0.0731 -0.05944,0.12326 -0.09531,0.14497 -0.0946,0.0573 -0.226714,0.0679 -0.296673,-0.0477 -0.06815,-0.11252 -0.01652,-0.2406 0.09598,-0.30875 0.05876,-0.0356 0.110875,-0.0278 0.119473,-0.0248 l -0.02077,-0.0349 c -0.02715,-0.0448 -0.0751,-0.0306 -0.128872,0.002 -0.05876,0.0356 -0.09564,0.0911 -0.120817,0.13492 l -0.111417,-0.0893 c 0.02537,-0.0481 0.08222,-0.14722 0.173841,-0.2027 0.05972,-0.0362 0.134611,-0.0659 0.206057,-0.0664 z m 4.182943,0.24499 c 0.0075,-3.5e-4 0.0146,-1.7e-4 0.02215,0 0.07759,0.003 0.152697,0.0411 0.198673,0.0859 0.07006,0.0682 0.118835,0.15934 0.09129,0.25438 l 0.07651,-0.0624 0.142968,0.13961 -0.203377,0.21009 -0.151017,-0.14766 c 0.06013,-0.0617 0.04566,-0.14384 -0.01275,-0.20069 -0.0242,-0.0236 -0.07225,-0.0406 -0.10068,-0.0114 -0.08366,0.0859 0.266705,0.38727 0.07584,0.58327 -0.126699,0.13012 -0.294068,0.0584 -0.393322,-0.0383 -0.08424,-0.082 -0.104863,-0.17794 -0.100016,-0.24633 l -0.07182,0.055 -0.145649,-0.1423 0.20472,-0.20941 0.155042,0.15035 c -0.06822,0.0701 -0.0093,0.15015 0.02413,0.18592 0.02921,0.0284 0.07731,0.0625 0.111417,0.0275 0.06335,-0.0651 -0.283619,-0.34978 -0.07651,-0.56246 0.046,-0.0472 0.09938,-0.068 0.152361,-0.0712 z m -4.147367,0.11881 c -0.01145,6.8e-4 -0.02523,0.004 -0.04093,0.0134 -0.03983,0.0241 -0.04354,0.057 -0.02482,0.0879 0.01687,0.0279 0.05135,0.0328 0.08122,0.0147 0.02989,-0.0181 0.04306,-0.0508 0.04292,-0.0711 l -0.02214,-0.0376 c -0.0034,-0.002 -0.01714,-0.009 -0.03627,-0.007 z m -0.636299,0.0584 c 0.07278,-6.9e-4 0.137484,0.0492 0.190618,0.10403 l 0.135584,0.14029 0.03894,-0.0383 0.106049,0.11008 -0.210754,0.20338 -0.220825,-0.22821 c -0.02756,-0.0284 -0.07281,-0.0807 -0.12216,-0.0329 -0.04264,0.0413 -0.012,0.0929 0.02283,0.12888 l 0.114104,0.1188 0.0604,-0.0577 0.106056,0.1094 -0.257073,0.24902 -0.106048,-0.10941 0.0349,-0.0342 -0.193312,-0.20002 -0.03558,0.0349 -0.104705,-0.10941 0.177873,-0.17249 0.06913,0.0336 c -0.0096,-0.0668 0.0021,-0.13156 0.05505,-0.18257 0.04861,-0.047 0.09527,-0.0666 0.138944,-0.0671 z m -0.457768,0.59469 c 0.05889,-0.002 0.121084,0.0145 0.182569,0.0537 0.16235,0.10487 0.175657,0.28612 0.07786,0.4336 -0.09201,0.13874 -0.266506,0.21583 -0.436953,0.10001 -0.161391,-0.10842 -0.164634,-0.29971 -0.07585,-0.4336 0.06472,-0.095 0.154177,-0.15052 0.252369,-0.1537 z m 5.611939,0.0342 c 0.111184,-0.003 0.213249,0.0603 0.273177,0.15304 0.09786,0.15577 0.07886,0.33054 -0.08255,0.43896 -0.161075,0.10682 -0.331542,0.0466 -0.427561,-0.10202 -0.09033,-0.13984 -0.09112,-0.33045 0.08323,-0.44031 0.05121,-0.0326 0.103163,-0.0482 0.153705,-0.0497 z m -5.68778,0.17519 c -0.02125,0.002 -0.03867,0.0113 -0.05032,0.0282 -0.02509,0.0379 0.01241,0.10473 0.08323,0.1517 0.07956,0.0528 0.152189,0.0562 0.179209,0.0154 0.0277,-0.0418 -0.01248,-0.10344 -0.08524,-0.1517 -0.04545,-0.0302 -0.09145,-0.0468 -0.126856,-0.0436 z m 5.787789,0.0356 c -0.0069,-6.9e-4 -0.0144,-4e-5 -0.02215,6.8e-4 -0.03092,0.003 -0.06836,0.0165 -0.104033,0.0396 -0.08019,0.0518 -0.111774,0.11666 -0.08525,0.15774 0.02715,0.042 0.09916,0.03 0.172504,-0.0175 0.07334,-0.0474 0.113954,-0.1098 0.08524,-0.1564 -0.0093,-0.0143 -0.02564,-0.0223 -0.04635,-0.0241 z m -6.463695,0.22686 0.657786,0.29332 0.02818,-0.0624 0.139615,0.0618 -0.138271,0.31077 -0.139609,-0.0618 0.02016,-0.0463 -0.520857,-0.23224 -0.02016,0.045 -0.136921,-0.0618 z m 7.041601,0.0658 c 0.06403,-6.8e-4 0.13895,0.0293 0.190624,0.14968 0.02386,0.0556 0.04292,0.13468 0.04093,0.16847 l -0.150352,-0.0108 c 3.5e-4,-0.014 -0.0027,-0.0349 -0.01543,-0.0638 -0.01008,-0.0235 -0.03195,-0.0259 -0.07048,-0.009 l -0.09128,0.0389 0.04162,0.0973 -0.138944,0.0597 -0.04162,-0.0973 -0.255729,0.1094 0.02688,0.0645 -0.139616,0.0597 -0.136921,-0.31882 0.14028,-0.0597 0.0181,0.043 0.256401,-0.11008 -0.01878,-0.0443 0.138936,-0.0597 0.01879,0.0443 0.09062,-0.0389 c 0.02283,-0.01 0.05752,-0.0217 0.09598,-0.0221 z m -0.02413,0.45306 0.0168,0.0604 0.103368,-0.0296 0.124169,0.18793 -0.169145,0.0483 0.03085,0.10537 -0.14632,0.0416 -0.03023,-0.10605 -0.199346,0.0563 c -0.03805,0.0108 -0.09159,0.0174 -0.0792,0.0611 0.0041,0.0145 0.02393,0.047 0.03894,0.0658 l -0.14364,0.0402 c -0.02297,-0.0298 -0.05245,-0.10378 -0.05972,-0.12954 -0.04765,-0.168 0.04285,-0.19964 0.185256,-0.24364 l 0.199345,-0.0564 -0.0168,-0.0604 z m -6.748281,0.003 c 0.04676,6.8e-4 0.122634,0.0133 0.173169,0.049 l -0.09598,0.35439 c 0.03215,0.001 0.09814,0.003 0.123504,-0.0913 0.01028,-0.0383 0.0229,-0.0969 -0.01138,-0.17116 l 0.134241,-0.0657 c 0.04964,0.10252 0.05156,0.1992 0.02016,0.31614 -0.03743,0.13942 -0.168719,0.27341 -0.384601,0.21546 -0.184399,-0.0495 -0.257676,-0.21147 -0.212097,-0.38124 0.03593,-0.13381 0.131718,-0.21761 0.234921,-0.22486 0.0055,-3.6e-4 0.01145,-6.9e-4 0.0181,-6.9e-4 z m -0.02413,0.19465 c -0.0041,-8e-5 -0.0081,1.8e-4 -0.01207,6.8e-4 -0.02681,0.003 -0.05101,0.0195 -0.06308,0.0645 -0.01844,0.0686 0.03894,0.10028 0.06644,0.11008 l 0.04635,-0.16914 c -0.01214,-0.003 -0.02523,-0.005 -0.03757,-0.006 z m 6.928833,0.27318 0.0181,0.31278 -0.151024,0.009 -0.0021,-0.0396 -0.0839,0.0302 c -0.05485,0.0194 -0.132211,0.0347 -0.165784,0.0389 v 0.002 c 0.04785,6.9e-4 0.158819,0.004 0.275864,0.0322 l 0.132897,0.0302 0.01138,0.21479 -0.148336,0.053 c -0.08792,0.033 -0.208601,0.0575 -0.249017,0.0644 v 0.001 c 0.03736,0.001 0.122661,0.008 0.185249,0.0215 l 0.06981,0.0161 -0.0034,-0.0477 0.151696,-0.009 0.01611,0.28392 -0.151024,0.009 -0.0027,-0.0477 -0.438297,-0.11142 -0.01344,-0.24566 0.257744,-0.0946 -0.267137,-0.0691 -0.01344,-0.23895 0.422186,-0.15572 -0.0021,-0.0503 0.150346,-0.009 z m -7.238258,0.17048 0.262441,0.0188 -0.01275,0.17116 c -0.05588,-0.002 -0.122339,0.011 -0.126185,0.0644 -0.0048,0.0685 0.06548,0.10732 0.140953,0.11276 0.07547,0.005 0.138464,-0.0359 0.144977,-0.11008 0.0055,-0.0614 -0.01666,-0.10365 -0.05574,-0.14498 l 0.126192,-0.094 c 0.05526,0.0588 0.106357,0.16791 0.09732,0.29332 -0.01227,0.17069 -0.125554,0.31157 -0.332242,0.29667 -0.205529,-0.0148 -0.287918,-0.15811 -0.277209,-0.30674 0.0055,-0.079 0.05252,-0.12222 0.07719,-0.14028 l -0.05505,-0.0241 z m 0.145649,0.6598 c 0.01015,0.10428 0.04237,0.16164 0.144312,0.15169 l 0.119473,-0.0114 -0.0055,-0.0591 0.151696,-0.0141 0.03222,0.32755 -0.152368,0.0147 -0.0048,-0.0503 -0.277209,0.0262 0.0055,0.0503 -0.151024,0.0147 -0.02146,-0.21814 0.07115,-0.0416 c -0.05855,-0.0247 -0.109168,-0.0505 -0.120817,-0.16982 z m 6.673111,0.18659 c 0.01495,-5.3e-4 0.02976,6.9e-4 0.04628,0.004 0.129044,0.0256 0.18867,0.15018 0.163104,0.27922 -0.01337,0.0674 -0.05375,0.10103 -0.06177,0.10539 l 0.04024,0.008 c 0.05142,0.0101 0.07235,-0.0343 0.08457,-0.096 0.01337,-0.0674 -0.0034,-0.13241 -0.01879,-0.18055 l 0.142296,-0.0221 c 0.01837,0.0511 0.053,0.16006 0.03222,0.26513 -0.02715,0.13704 -0.11348,0.29954 -0.297344,0.2631 l -0.222169,-0.0443 -0.01344,0.0685 -0.146321,-0.0282 0.04834,-0.24432 0.05704,-0.0181 c -0.04984,-0.0538 -0.05108,-0.12736 -0.04299,-0.16847 0.01879,-0.0949 0.08401,-0.18731 0.188608,-0.19129 z m 0.0041,0.22217 c -0.02667,3.5e-4 -0.0484,0.0217 -0.05437,0.0517 -0.0069,0.0343 0.0077,0.0669 0.02283,0.0806 l 0.0436,0.008 c 0.0062,-0.002 0.0375,-0.0131 0.04696,-0.0611 0.0091,-0.0457 -0.01227,-0.0708 -0.04765,-0.0779 -0.0041,-6.8e-4 -0.0076,-0.001 -0.01138,-0.001 z m -6.237495,0.0356 0.07114,0.23828 -0.0423,0.0423 c 0.0692,0.0243 0.104821,0.0887 0.116785,0.12887 0.03161,0.10599 0.0086,0.23731 -0.120817,0.27586 -0.126075,0.0376 -0.237636,-0.0457 -0.275193,-0.17183 -0.01961,-0.0658 0.0021,-0.11391 0.0069,-0.12149 l -0.03894,0.0114 c -0.05019,0.0149 -0.0495,0.0639 -0.03154,0.12418 0.01961,0.0658 0.06458,0.11627 0.100681,0.15169 l -0.114776,0.0852 c -0.04004,-0.0367 -0.121119,-0.11683 -0.15169,-0.21948 -0.0399,-0.13389 -0.04004,-0.31767 0.139609,-0.37118 l 0.217466,-0.0651 -0.01947,-0.0671 z m -0.07316,0.34097 -0.0423,0.0128 c -0.0048,0.005 -0.02674,0.0283 -0.01275,0.0752 0.0133,0.0446 0.04326,0.0573 0.07786,0.047 0.03126,-0.009 0.04552,-0.041 0.03558,-0.0745 -0.0099,-0.0335 -0.03867,-0.0553 -0.05841,-0.0604 z m 6.02875,0.0732 0.140952,0.0577 -0.01947,0.0477 0.257073,0.10605 0.01879,-0.0464 0.140281,0.057 -0.0839,0.20271 -0.08189,0.004 c 0.04018,0.0492 0.07317,0.0958 0.02749,0.20673 l -0.194648,-0.0799 c 0.0399,-0.0969 0.03833,-0.16236 -0.05636,-0.20136 l -0.110745,-0.0457 -0.02215,0.0537 -0.140952,-0.0577 z m -5.846853,0.31614 c 0.08578,-10e-4 0.162363,0.0606 0.240289,0.19398 l 0.22284,0.38191 -0.130881,0.0765 -0.03359,-0.0584 -0.442322,0.25841 0.03353,0.0584 -0.129537,0.0759 -0.218817,-0.37521 c -0.09749,-0.16686 -0.08137,-0.28232 0.02818,-0.34634 0.08444,-0.0494 0.138566,-0.0504 0.212769,0.007 -0.02221,-0.0841 -0.0034,-0.17594 0.09397,-0.23291 0.04429,-0.0258 0.08451,-0.0391 0.123504,-0.0396 z m 5.754228,0.17586 c 0.0071,-3.5e-4 0.01426,-1.8e-4 0.02146,0 0.05238,0.002 0.109285,0.0186 0.168473,0.0557 0.161767,0.1014 0.184646,0.27794 0.09128,0.42689 -0.07358,0.11738 -0.189843,0.16966 -0.290633,0.14632 -0.04196,-0.01 -0.125232,-0.0467 -0.168473,-0.10269 l 0.194649,-0.31077 c -0.03037,-0.0108 -0.09236,-0.0318 -0.144305,0.051 -0.02105,0.0335 -0.0506,0.086 -0.03963,0.16713 l -0.146992,0.0235 c -0.01741,-0.11257 0.0095,-0.20616 0.07383,-0.30875 0.04943,-0.0788 0.134796,-0.14378 0.240289,-0.14834 z m -5.713284,0.0839 c -0.01467,0.001 -0.02969,0.007 -0.04498,0.0154 -0.05128,0.03 -0.07123,0.0803 -0.03894,0.13558 l 0.04429,0.0772 0.175849,-0.10203 -0.04765,-0.0805 c -0.01543,-0.0264 -0.0423,-0.0437 -0.07383,-0.0457 -0.0048,-3.6e-4 -0.0099,-5.3e-4 -0.01474,0 z m -0.255729,0.1913 c -0.01536,0.001 -0.03161,0.008 -0.04971,0.0188 -0.04621,0.027 -0.05725,0.0712 -0.0349,0.10941 l 0.03695,0.0638 0.151018,-0.0886 -0.03627,-0.0611 c -0.01947,-0.0333 -0.04148,-0.0451 -0.06712,-0.0423 z m 6.082446,0.005 -0.09397,0.14901 c 0.03812,0.0225 0.08527,0.0396 0.124841,-0.0235 0.03771,-0.0602 -0.0075,-0.10808 -0.03085,-0.12552 z"
       id="path3138"
       inkscape:connector-curvature="0" />
    <circle
       style="opacity:0;fill:#ffffff;fill-opacity:1;stroke:none;stroke-width:0.02701816"
       id="path2992"
       cx="-48.20422"
       cy="226.21765"
       r="2.8851531" />
    <g
       transform="matrix(-0.02431206,0.02279417,-0.02279417,-0.02431206,-30.604796,156.59953)"
       style="font-style:normal;font-weight:normal;font-size:40px;line-height:125%;font-family:Sans;letter-spacing:-0.20604955px;word-spacing:0px;fill:#ffffff;fill-opacity:1;stroke:none"
       id="text3762" />
    <flowRoot
       transform="matrix(0.02147852,0,0,0.02147852,-55.657177,216.92855)"
       xml:space="preserve"
       id="flowRoot3984"
       style="font-style:normal;font-weight:normal;line-height:0.01%;font-family:sans-serif;letter-spacing:0px;word-spacing:0px;fill:#ffffff;fill-opacity:1;stroke:none;stroke-width:1px;stroke-linecap:butt;stroke-linejoin:miter;stroke-opacity:1"><flowRegion
         id="flowRegion3986"
         style="font-family:sans-serif;fill:#ffffff"><rect
           id="rect3988"
           width="144.45181"
           height="40.406101"
           x="371.73615"
           y="848.31134"
           style="font-family:sans-serif;fill:#ffffff" /></flowRegion><flowPara
         id="flowPara3990"
         style="font-size:40px;line-height:1.25;font-family:sans-serif;fill:#ffffff"> </flowPara></flowRoot>    <path
       style="fill:#ffffff;fill-opacity:1;stroke:none;stroke-width:0.00564827"
       d="m 26.129679,209.59561 c -0.01109,7.9e-4 -0.02258,0.006 -0.03018,0.0145 -0.0097,0.0112 -0.0083,0.0162 0.0053,0.026 0.01253,0.009 0.01545,0.0211 0.01201,0.0455 -0.0026,0.0181 -0.0058,0.0636 -0.0067,0.10096 -0.0016,0.065 -0.0056,0.11661 -0.01058,0.13521 -0.0013,0.005 -0.0021,0.0157 -0.0018,0.0243 5.52e-4,0.014 -0.0033,0.0163 -0.0353,0.0242 -0.01196,0.003 -0.0238,0.006 -0.03565,0.009 -0.0013,-0.006 -0.0023,-0.0122 -0.0035,-0.0182 -0.002,-0.01 -0.005,-0.0198 -0.0062,-0.0224 -0.0013,-0.003 -0.0083,-0.0304 -0.01624,-0.0613 -0.0044,-0.0169 -0.0098,-0.038 -0.015,-0.0574 -0.0043,-0.016 -0.0085,-0.0304 -0.01147,-0.041 -0.0083,-0.0296 -0.0089,-0.0436 -8.94e-4,-0.0447 0,0 3.68e-4,2e-5 3.68e-4,0 0.01201,-0.002 0.01228,-0.0259 0,-0.0374 -0.0014,-0.001 -0.0034,-0.002 -0.0056,-0.003 -0.01336,-0.004 -0.03883,7.9e-4 -0.04448,0.0106 -0.0079,0.0138 -0.0026,0.0317 0.0097,0.0334 0.0071,7.9e-4 0.01249,0.0444 0.01536,0.1006 0.0029,0.0562 0.0038,0.12511 0.0018,0.17846 -7.1e-4,0.0211 -8.94e-4,0.0554 0,0.0763 8.94e-4,0.0208 5.52e-4,0.0587 -8.94e-4,0.0842 -0.0028,0.0511 -0.0036,0.0874 -0.0035,0.11297 5e-6,0.0256 5.52e-4,0.0407 0.0018,0.0498 7.1e-4,0.006 -0.0046,0.0103 -0.01588,0.0129 -0.01933,0.004 -0.02921,0.007 -0.03212,0.0166 -0.0029,0.009 0.0011,0.0255 0.0092,0.0565 0.008,0.0306 0.01087,0.0502 0.0094,0.0565 -0.0014,0.006 -0.0074,-5.3e-4 -0.01765,-0.0235 -0.0068,-0.0152 -0.01599,-0.028 -0.01995,-0.0286 -0.0039,-5.3e-4 -0.0087,-0.006 -0.01058,-0.0127 -0.0016,-0.005 -0.01368,-0.025 -0.02683,-0.0429 -0.01314,-0.0179 -0.02724,-0.0342 -0.03036,-0.0351 -0.0016,-5.3e-4 -0.0037,0.0149 -0.0049,0.033 -0.0013,0.0181 -0.002,0.0389 -8.94e-4,0.0494 0.0014,0.0135 -0.0011,0.0167 -0.0203,0.0247 -0.01215,0.005 -0.03204,0.01 -0.04448,0.0101 -0.02202,7.9e-4 -0.02325,-5e-5 -0.03707,-0.033 -0.01796,-0.0428 -0.04657,-0.0892 -0.04978,-0.0807 -0.0013,0.004 -0.03729,-0.0271 -0.08243,-0.0658 -0.04514,-0.0387 -0.08735,-0.0688 -0.09125,-0.0692 -0.0039,-2.7e-4 -0.0061,0.0513 -0.0013,0.11385 0.004,0.0521 0.0081,0.0974 0.0083,0.11279 0,0.003 -4.6e-5,0.005 -3.68e-4,0.005 -0.0021,0.003 0.0053,0.0222 0.01659,0.0427 0.03035,0.0551 0.03093,0.0616 0.01058,0.0883 -0.02208,0.029 -0.03914,0.042 -0.04625,0.0326 -0.0029,-0.004 -0.02231,-0.0184 -0.04324,-0.0318 -0.01269,-0.008 -0.02538,-0.016 -0.0383,-0.0238 0.0039,0.0146 0.0082,0.0289 0.01235,0.0433 0.0069,0.0238 0.01516,0.0457 0.01801,0.0493 0.0028,0.004 -5.52e-4,0.0171 -0.0074,0.03 -0.0041,0.008 -0.0084,0.0156 -0.01235,0.0235 l 0.04183,0.0498 c 0.03567,0.0425 0.04118,0.0512 0.03495,0.0565 -0.0033,0.003 -0.0081,2.6e-4 -0.02471,-0.0177 -0.0166,-0.018 -0.04507,-0.0515 -0.09479,-0.11244 -0.07269,-0.0891 -0.110495,-0.14108 -0.108905,-0.14809 0.0018,-0.008 -7.1e-4,-0.01 -0.0085,-0.007 -0.0078,0.003 -0.01682,-0.005 -0.03301,-0.0274 -0.0074,-0.0104 -0.01466,-0.0205 -0.02206,-0.0309 -0.0172,0.002 -0.03475,0.005 -0.05207,0.007 -0.01733,0.003 -0.03447,0.006 -0.05189,0.009 -0.0031,0.0169 -0.006,0.0338 -0.0085,0.0507 -0.0037,0.025 -0.0048,0.038 -0.0021,0.0477 0.0027,0.01 0.0096,0.0164 0.0233,0.0295 0.0152,0.0146 0.0281,0.032 0.02877,0.0388 7.1e-4,0.008 0.0036,0.0108 0.0088,0.008 0.005,-0.002 0.05305,0.0398 0.132557,0.11596 l 0.124791,0.1195 c -0.0086,0.008 -0.0172,0.0167 -0.0256,0.0252 -0.0084,0.009 -0.01657,0.0172 -0.02471,0.026 -0.01626,-0.0131 -0.03259,-0.0261 -0.04889,-0.0392 -0.06945,-0.0555 -0.111766,-0.0802 -0.124262,-0.0736 -0.01031,0.005 0.0285,0.0489 0.07802,0.0881 0.01547,0.0122 0.02733,0.0257 0.02648,0.0295 -7.1e-4,0.003 -0.0069,0.009 -0.015,0.0146 -0.01633,0.0121 -0.04034,0.0269 -0.04413,0.0242 -0.0014,-0.001 -0.0063,0.004 -0.01412,0.0141 -0.0078,0.0106 -0.01863,0.0273 -0.03177,0.0503 -0.01309,0.0229 -0.02527,0.0464 -0.03689,0.0701 -0.0093,-0.003 -0.01888,-0.007 -0.02824,-0.0106 -0.02576,-0.009 -0.07891,-0.0351 -0.125321,-0.0604 -0.04642,-0.0253 -0.08599,-0.0498 -0.08455,-0.0547 0.0019,-0.007 -7.1e-4,-0.008 -0.01024,-0.006 -0.0072,0.002 -0.02595,-0.005 -0.04183,-0.0145 -0.01399,-0.008 -0.02172,-0.0126 -0.03089,-0.0124 -0.0092,1.8e-4 -0.02013,0.005 -0.0406,0.0145 -0.02322,0.0113 -0.04347,0.0208 -0.04536,0.0199 -0.0084,-0.004 -0.011,0.0181 -0.0044,0.063 0.0024,0.0162 0.0051,0.0321 0.0079,0.048 0.01278,0.004 0.02571,0.008 0.03848,0.0118 0.02846,0.009 0.03789,0.0151 0.03777,0.0238 -1.39e-4,0.009 0.0022,0.0106 0.0097,0.005 0.0072,-0.005 0.04741,0.008 0.166271,0.0563 0.08636,0.0348 0.156632,0.0643 0.156032,0.0658 -5.52e-4,0.001 -0.0081,0.0108 -0.01677,0.0207 -0.0052,0.006 -0.01073,0.0119 -0.01588,0.018 l -0.07713,-0.0272 -0.07661,-0.0274 c -0.0088,0.0248 -0.01702,0.0496 -0.02436,0.0748 -0.0028,0.01 -0.0051,0.0185 -0.0071,0.0265 -0.0084,0.0334 -0.01058,0.0512 -0.008,0.0533 0.0027,0.002 0.005,0.0158 0.0053,0.0297 3.68e-4,0.0139 0.0034,0.0257 0.0067,0.0268 0.0033,0.001 0.0081,0.003 0.01058,0.004 0.0025,7.9e-4 0.0023,0.0178 0,0.0378 -0.0014,0.0121 -0.0025,0.0245 -0.0035,0.0367 0.01855,0.003 0.03687,0.006 0.05542,0.009 0.01855,0.003 0.03704,0.006 0.0556,0.009 -8.95e-4,0.007 -0.0019,0.0145 -0.0027,0.0219 -0.0013,0.0121 -0.0037,0.0219 -0.0062,0.0217 -0.0024,-1.8e-4 -0.02614,-0.008 -0.05207,-0.0176 -0.02593,-0.01 -0.04985,-0.019 -0.05366,-0.0194 -0.0052,-5.2e-4 -0.0086,0.0103 -0.01112,0.0445 -0.0022,0.0299 -0.0047,0.0451 -0.0083,0.0438 -0.0048,-0.002 -0.01029,0.011 -0.01466,0.0342 -0.0043,0.0233 -0.0071,0.057 -0.0065,0.0966 5.53e-4,0.0336 8.94e-4,0.0531 3.69e-4,0.0644 -7.11e-4,0.0114 -0.0025,0.0147 -0.0065,0.0168 -0.0058,0.003 -0.0079,0.008 -0.0049,0.0353 0.0013,0.0118 0.0038,0.0276 0.0076,0.0493 0.0046,0.0265 0.01008,0.0532 0.01624,0.0794 l 0.01201,-0.003 c 0.006,-0.001 0.0094,-0.002 0.01271,0.005 0.0034,0.007 0.0068,0.022 0.015,0.0512 0.01222,0.0433 0.01679,0.0622 0.01412,0.0715 -0.0014,0.005 -8.94e-4,0.0125 0.003,0.0268 0.004,0.0143 0.0114,0.0353 0.02436,0.0662 0.0163,0.0388 0.02597,0.0581 0.03213,0.0674 0.0062,0.009 0.009,0.009 0.01412,0.007 0.0058,-0.002 0.01365,-0.005 0.01713,-0.007 0.0035,-0.001 0.01112,0.001 0.01729,0.006 0.0059,0.004 0.01046,0.005 0.02295,-0.003 0.01249,-0.009 0.03284,-0.0273 0.07272,-0.0607 0.01327,-0.0111 0.01975,-0.0139 0.02242,-0.01 0.0021,0.003 0.0092,0.0144 0.01554,0.0247 0.0063,0.0103 0.0182,0.0284 0.02683,0.0401 0.0022,0.003 0.0038,0.006 0.0056,0.008 0.01212,0.0179 0.017,0.0309 0.01147,0.0344 -0.0021,0.001 -0.01219,-0.0111 -0.02189,-0.0274 l -5.52e-4,-2.7e-4 c -0.0058,-0.01 -0.01129,-0.0193 -0.01677,-0.0291 l -0.03477,0.0194 c -0.02342,0.013 -0.03377,0.0215 -0.03124,0.0259 0.0027,0.005 -0.0071,0.0121 -0.0353,0.0243 -0.03763,0.0164 -0.03945,0.0171 -0.0323,0.0295 0.0052,0.009 0.0048,0.0137 -0.0013,0.0154 -0.0036,7.9e-4 -0.0073,-5.3e-4 -0.01323,-0.007 -0.006,-0.007 -0.01424,-0.0188 -0.02648,-0.0392 -0.02085,-0.0347 -0.0328,-0.0562 -0.04183,-0.068 -0.009,-0.0118 -0.01468,-0.0138 -0.02118,-0.0109 -0.0075,0.003 -0.01312,1.9e-4 -0.01889,-0.0102 -0.0062,-0.0113 -0.01161,-0.014 -0.02383,-0.0109 -0.0053,0.001 -0.01109,0.003 -0.01641,0.004 0.01075,0.0261 0.02271,0.0523 0.03495,0.0777 0.01224,0.0254 0.02495,0.0503 0.03865,0.0748 l -0.02383,0.0132 c -0.01888,0.0105 -0.0226,0.0159 -0.01889,0.0265 0.0022,0.006 0.0059,0.0154 0.01147,0.0265 0.01089,0.0216 0.02796,0.0508 0.04978,0.083 0.02182,0.0322 0.04865,0.0676 0.07766,0.10097 0.02609,0.03 0.05326,0.0585 0.08155,0.0863 0.01311,-0.0135 0.02604,-0.0266 0.03919,-0.0401 0.02351,-0.024 0.04156,-0.0383 0.04448,-0.0353 0.0027,0.003 0.0094,0.008 0.015,0.0115 0.0089,0.005 0.0029,0.0138 -0.05278,0.0724 -0.05346,0.0563 -0.06205,0.0682 -0.05472,0.0757 0.0048,0.005 0.01194,0.0144 0.01624,0.0215 0.0043,0.007 0.01219,0.0153 0.01729,0.0182 0.0051,0.003 0.01248,0.007 0.01624,0.0101 0.0038,0.003 0.01408,0.007 0.02295,0.008 0.01415,0.003 0.02305,-0.004 0.07237,-0.0621 l 0.05595,-0.0662 c 0.01085,0.009 0.02187,0.0185 0.03301,0.0274 0.01118,0.009 0.02262,0.0169 0.03053,0.0224 0.0051,0.004 0.0086,0.006 0.01006,0.007 0.0037,0.002 0.01797,0.0239 0.03301,0.0489 0.0091,0.0151 0.01841,0.0301 0.02824,0.045 -0.0054,0.009 -0.01049,0.0173 -0.01588,0.0259 -0.0089,0.0143 -0.02525,0.0539 -0.03565,0.0886 -0.01614,0.0538 -0.02361,0.0823 -0.03036,0.0962 -0.0068,0.0139 -0.01269,0.0132 -0.02348,0.0104 -0.02206,-0.006 -0.02342,-0.01 -0.01183,-0.0462 0.0026,-0.008 0.0053,-0.0159 0.0079,-0.0238 -0.0082,0.006 -0.01642,0.0121 -0.02471,0.0182 -0.01797,0.0131 -0.02842,0.0159 -0.03742,0.0101 -0.03254,-0.021 -0.06088,-0.0389 -0.07643,-0.0471 -0.0051,-0.003 -0.0089,-0.004 -0.01094,-0.004 -0.01136,-0.002 -0.01145,0.004 8.94e-4,0.0177 0.0074,0.008 0.01952,0.0192 0.03618,0.0326 0.01487,0.012 0.02972,0.0236 0.04501,0.0351 -0.0083,0.0158 -0.01648,0.0314 -0.02471,0.0473 -0.01358,0.0262 -0.02769,0.0591 -0.03142,0.0731 -0.0023,0.008 -0.0043,0.0171 -0.0065,0.0256 0.0065,-0.009 0.01244,-0.0172 0.01889,-0.026 0.01062,-0.0145 0.02371,-0.0307 0.02877,-0.0357 0.0051,-0.005 0.01783,-0.0206 0.0286,-0.035 0.0065,-0.009 0.01329,-0.0178 0.01977,-0.0265 0.01094,0.005 0.02165,0.01 0.03265,0.0146 0.0256,0.0109 0.03806,0.0167 0.04978,-10e-4 0.01172,-0.0181 0.02226,-0.0605 0.04907,-0.14491 0.009,-0.0284 0.01435,-0.0435 0.01977,-0.0526 0.0054,-0.009 0.01112,-0.0121 0.02118,-0.0168 0.017,-0.008 0.02808,-0.007 0.05772,0 0.02028,0.005 0.03785,0.007 0.03883,0.005 8.94e-4,-0.002 0.0037,-0.002 0.0062,-2.6e-4 0.0025,0.002 0.01433,0.005 0.02595,0.007 0.01161,0.002 0.04759,0.0166 0.08066,0.0303 0.01698,0.007 0.03401,0.0136 0.05119,0.02 l 0.305889,-0.67938 c -0.270873,-0.0725 -0.470395,-0.31947 -0.470395,-0.61319 0,-0.3506 0.284297,-0.6349 0.634901,-0.6349 0.350602,0 0.634901,0.2843 0.634901,0.6349 0,0.30082 -0.209466,0.55247 -0.490341,0.61796 l 0.165741,0.36767 c 0.02295,-0.007 0.04572,-0.0144 0.06796,-0.023 -0.01554,0.0237 -0.03111,0.0471 -0.04713,0.0697 l 0.119851,0.26582 c 0.01435,-0.009 0.02864,-0.0173 0.04271,-0.0265 0.02128,-0.0139 0.04224,-0.0285 0.06301,-0.0436 -0.0024,0.006 -0.0049,0.0112 -0.0074,0.0168 -0.0025,0.006 -0.0048,0.0113 -0.0074,0.0168 0.004,-0.006 0.0074,-0.0129 0.01131,-0.0194 0.01172,-0.02 0.03426,-0.042 0.03089,-0.0286 -0.0011,0.004 0.0029,7.9e-4 0.0085,-0.008 0.0084,-0.0125 0.01132,-0.0149 0.01801,-0.0136 0.0056,0.001 0.0086,-7.9e-4 0.0097,-0.006 0.0019,-0.009 0.02713,-0.0314 0.03477,-0.03 0.003,5.2e-4 0.0079,0.007 0.01058,0.0132 0.0024,0.006 0.0032,0.009 -0.0018,0.015 -0.005,0.006 -0.01572,0.0149 -0.03777,0.0312 -0.02229,0.0165 -0.03384,0.0241 -0.03936,0.0265 -0.0055,0.002 -0.0049,-7.9e-4 -0.0039,-0.008 7.1e-4,-0.004 0.0011,-0.009 0.0018,-0.0136 -0.0018,0.005 -0.0039,0.0109 -0.0058,0.0163 -0.0032,0.009 -0.0097,0.0185 -0.01448,0.0217 -0.0091,0.006 -0.0089,0.0108 3.68e-4,0.0242 0.0043,0.008 0.0056,0.0116 0.0058,0.0127 -0.0011,-7.9e-4 1.6e-5,7.9e-4 0,1.8e-4 3.68e-4,1.8e-4 5.52e-4,5.3e-4 0.0013,0.001 l 0.02206,0.0445 0.02171,0.0446 c 0.01037,-0.005 0.02097,-0.01 0.03124,-0.0146 0.0085,-0.004 0.02836,-0.0144 0.05331,-0.0282 0.02494,-0.0139 0.05484,-0.0313 0.08331,-0.0498 0.0016,-0.001 0.0032,-0.002 0.0049,-0.004 0.03297,-0.0198 0.06519,-0.0407 0.09655,-0.063 l 0.01713,0.0238 c 0.0096,0.0136 0.01457,0.0206 0.02471,0.0194 0.01013,-0.001 0.02524,-0.0103 0.05472,-0.03 0.01253,-0.008 0.02511,-0.0169 0.03742,-0.0256 l 0.07237,0.0883 c 0.05401,0.0658 0.07533,0.0871 0.08455,0.0842 0.0068,-0.002 0.04263,-0.0231 0.0789,-0.0482 0.03231,-0.0224 0.04872,-0.0349 0.06354,-0.0492 0.01482,-0.0144 0.02804,-0.0308 0.05207,-0.0632 0.01635,-0.0221 0.0322,-0.0442 0.04748,-0.0669 l -0.247288,-0.20687 -0.24729,-0.20704 c 0.0038,-0.005 0.0078,-0.009 0.01147,-0.0138 0.0037,-0.005 0.0073,-0.009 0.01094,-0.0136 0.03452,0.0254 0.06891,0.0505 0.10361,0.0757 0.05725,0.0416 0.161898,0.11996 0.232286,0.17457 l 0.127968,0.0992 c 0.0041,-0.005 0.0083,-0.0106 0.01235,-0.0159 0.02213,-0.0292 0.04311,-0.059 0.06337,-0.0895 0.02394,-0.036 0.04671,-0.0728 0.06796,-0.11049 -0.0039,-0.003 -0.0076,-0.005 -0.01147,-0.008 -0.0064,-0.004 -0.0195,-0.0109 -0.02913,-0.0154 -0.01761,-0.008 -0.02552,-0.0382 -0.01323,-0.0494 0.0033,-0.003 0.0034,-0.007 8.94e-4,-0.008 -0.0029,-0.001 0.0076,-0.0247 0.02524,-0.0612 0.01145,-0.0238 0.01767,-0.039 0.02065,-0.0485 0.003,-0.01 0.0028,-0.0133 0,-0.0145 -0.0038,-0.002 -0.0046,-0.008 -0.0018,-0.015 0.0044,-0.0104 -0.01343,-0.0198 -0.135734,-0.0706 l -0.141032,-0.0586 c 0.0063,-0.0151 0.01192,-0.0306 0.01765,-0.0459 0.0076,-0.0205 0.0112,-0.0323 0.01217,-0.0397 8.94e-4,-0.007 -5.52e-4,-0.0102 -0.0044,-0.0132 -0.0071,-0.006 -0.007,-0.011 0,-0.0298 0.0048,-0.0127 0.0079,-0.0256 0.0071,-0.0279 -8.94e-4,-0.002 -0.02253,-0.0108 -0.04801,-0.0189 -0.02548,-0.008 -0.0457,-0.0165 -0.04501,-0.0191 3.69e-4,-0.002 0.01935,0.002 0.04766,0.009 0.01624,0.004 0.03589,0.009 0.05648,0.0141 0.06737,0.0182 0.103816,0.0256 0.106259,0.0208 0.0021,-0.004 0.0069,-0.007 0.01058,-0.006 0.0039,10e-4 0.0079,-0.003 0.01271,-0.0136 0.0048,-0.0107 0.01044,-0.0283 0.01677,-0.0547 0.003,-0.0126 0.0058,-0.0248 0.0085,-0.0374 0.0108,0.001 0.02131,0.002 0.03213,0.004 0.03113,0.003 0.05527,-0.004 0.06566,-0.0199 0.0027,-0.004 0.0074,-0.0249 0.01006,-0.0463 0.004,-0.0316 0.0061,-0.0387 0.01323,-0.0379 0.01073,0.001 0.02146,-0.0208 0.02206,-0.0462 1.81e-4,-0.0104 0.0011,-0.0361 0.0014,-0.0568 5.53e-4,-0.034 -0.0011,-0.0378 -0.01201,-0.0379 -0.0067,-5e-5 -0.01302,-0.005 -0.01412,-0.0101 -0.0014,-0.008 -0.03903,-0.0107 -0.149328,-0.0124 -0.04923,-7.9e-4 -0.09851,-0.002 -0.147736,-0.002 -0.0022,-0.0126 -0.0045,-0.025 -0.0071,-0.0374 -0.0042,-0.0205 -0.01002,-0.0478 -0.01271,-0.0613 -0.0016,-0.008 -0.0035,-0.0166 -0.0053,-0.0247 0.09766,-0.0108 0.195545,-0.0216 0.29318,-0.0326 0.09764,-0.0111 0.195044,-0.0225 0.292652,-0.0339 -0.0018,-0.0181 -0.0039,-0.0362 -0.0062,-0.0542 -0.0045,-0.0356 -0.0097,-0.071 -0.01624,-0.10626 -0.0099,-0.0531 -0.02255,-0.10569 -0.03707,-0.15779 l -0.317891,0.0921 -0.318245,0.0921 c -0.0025,-0.0165 -0.0019,-0.036 -0.0039,-0.0475 0.0051,-0.002 0.136326,-0.066 0.291767,-0.12991 0.156059,-0.0642 0.161927,-0.0668 0.185512,-0.0775 0.195143,-0.0845 0.205283,-0.26502 0.163976,-0.35531 -0.04131,-0.0903 -0.176869,-0.17656 -0.339426,-0.0847 -0.03491,0.0199 -0.05087,0.0267 -0.200515,0.13591 -0.0907,0.0662 -0.181143,0.13191 -0.271999,0.19786 -0.0043,-0.006 -0.0089,-0.0118 -0.01323,-0.0176 -0.0072,-0.01 -0.01233,-0.0199 -0.01147,-0.0233 8.94e-4,-0.003 -0.0023,-0.011 -0.0067,-0.0164 -0.0076,-0.009 -0.0056,-0.0111 0.03495,-0.0422 0.04,-0.0307 0.0422,-0.0337 0.03424,-0.0432 -0.0064,-0.008 -0.006,-0.0133 0.0023,-0.0226 0.0061,-0.007 0.0083,-0.0137 0.0048,-0.0154 -0.0035,-0.002 -0.0024,-0.004 0.0023,-0.005 0.0061,-0.001 0.0055,-0.005 -0.0018,-0.013 -0.0056,-0.006 -0.01019,-0.009 -0.01058,-0.006 -5.52e-4,0.004 -0.01067,0.008 -0.02153,0.0102 -0.01085,0.002 -0.02278,0.002 -0.02612,-0.002 -0.0043,-0.005 -0.01487,0.003 -0.04236,0.0316 -0.01224,0.0126 -0.02425,0.0251 -0.03654,0.0376 -0.0044,-0.005 -0.0091,-0.009 -0.01359,-0.0141 -0.0075,-0.008 -0.01534,-0.0122 -0.01729,-0.0102 -0.0019,0.002 -0.01235,-0.005 -0.0233,-0.0159 -0.0066,-0.006 -0.013,-0.0124 -0.01977,-0.0185 0.02799,-0.029 0.05604,-0.058 0.08419,-0.0868 0.07622,-0.078 0.08388,-0.0871 0.07837,-0.0978 -0.0035,-0.007 -0.002,-0.0167 0.0035,-0.023 0.0063,-0.007 0.007,-0.0159 0.0018,-0.0251 -0.0045,-0.008 -0.0056,-0.0169 -0.0027,-0.0203 0.0062,-0.007 0.0059,-0.0164 -0.0018,-0.0282 -0.0076,-0.0119 -0.02291,-0.0266 -0.04713,-0.045 -8.95e-4,-7.9e-4 -0.0018,-0.001 -0.0027,-0.002 -0.0211,-0.016 -0.03251,-0.0237 -0.03918,-0.0265 -0.0067,-0.003 -0.0087,-7.9e-4 -0.01201,0.004 -0.0045,0.006 -0.01217,0.008 -0.02153,0.004 -0.0139,-0.006 -0.01722,-0.003 -0.06443,0.0669 -0.04278,0.063 -0.06279,0.0928 -0.07484,0.10538 -0.01204,0.0126 -0.01646,0.008 -0.02877,0.003 -0.02387,-0.0105 -0.02569,-0.0146 -0.01765,-0.0409 0.003,-0.01 0.0032,-0.0209 5.52e-4,-0.0247 -0.0042,-0.006 -0.0022,-0.013 0.01006,-0.0388 0.0054,-0.0113 -0.0078,-0.006 -0.02118,0.009 -0.01222,0.0136 -0.01381,0.0137 -0.03601,0.003 -0.01841,-0.009 -0.02358,-0.0137 -0.0226,-0.0215 7.1e-4,-0.006 -0.0027,-0.0118 -0.0074,-0.0141 -0.0047,-0.002 -0.0064,-0.008 -0.0041,-0.0132 0.0023,-0.005 0.0019,-0.0112 -8.94e-4,-0.0145 -0.0027,-0.003 -0.0067,-0.002 -0.0088,0.003 -0.0026,0.005 -0.0047,0.005 -0.0062,2.6e-4 -0.0011,-0.004 -0.01148,-0.0106 -0.03071,-0.0203 -0.01922,-0.01 -0.04709,-0.0218 -0.08243,-0.0339 -0.02352,-0.008 -0.02878,-0.007 -0.03142,5.2e-4 -0.0023,0.007 -0.0078,0.008 -0.01977,0.004 -0.01185,-0.004 -0.01527,-0.007 -0.01323,-0.0141 0.0016,-0.005 4.1e-5,-0.0118 -0.0032,-0.0145 -0.0035,-0.003 -0.0081,0.003 -0.01147,0.0145 -0.0048,0.0165 -0.0083,0.0192 -0.02242,0.018 -0.0033,-2.6e-4 -0.0064,-5.2e-4 -0.0092,-7.9e-4 -0.02858,-0.003 -0.03017,-0.0106 -0.02259,-0.0507 0.0049,-0.0257 0.01038,-0.04 0.015,-0.0388 0.0087,0.002 0.0167,-0.025 0.0085,-0.0295 -0.0042,-0.002 -0.0057,-0.0419 -0.0067,-0.0904 -8.94e-4,-0.0484 -0.0016,-0.10573 8.94e-4,-0.14368 0.0024,-0.036 0.0039,-0.0843 0.0035,-0.10678 -7.11e-4,-0.0432 0.0028,-0.10416 0.0079,-0.15515 0.0052,-0.051 0.01248,-0.0918 0.01942,-0.0943 0.01816,-0.006 0.01498,-0.0306 -0.0058,-0.041 -0.01347,-0.007 -0.02042,-0.007 -0.03336,-0.001 -0.01758,0.008 -0.0176,0.03 -5.52e-4,0.0383 0.0072,0.003 0.0045,0.017 -0.008,0.0441 -0.0098,0.0214 -0.01547,0.0408 -0.01323,0.0433 0.002,0.002 -0.0071,0.0373 -0.01713,0.0727 -0.01006,0.0354 -0.02099,0.0712 -0.02471,0.0759 -0.0035,0.004 -0.01857,0.003 -0.03354,-0.001 -0.01496,-0.004 -0.03013,-0.0109 -0.03354,-0.0171 -0.0034,-0.006 -0.0064,-0.041 -0.0088,-0.0842 -0.0024,-0.0432 -0.0041,-0.0948 -0.0035,-0.13414 3.68e-4,-0.0276 -0.0021,-0.0587 -0.0053,-0.0692 -0.0042,-0.0137 -0.0014,-0.0209 0.01024,-0.0251 0.01966,-0.007 0.01603,-0.0366 -0.0058,-0.0424 -0.01869,-0.005 -0.03624,0.002 -0.04483,0.0115 -0.0086,0.01 -0.0083,0.0217 0.0088,0.0277 0.011,0.004 0.01188,0.0134 0.0039,0.042 -0.0057,0.0203 -0.01597,0.0691 -0.02242,0.10838 -0.0064,0.0393 -0.01291,0.0771 -0.015,0.0842 -0.0021,0.007 -0.0081,0.0312 -0.01323,0.053 -0.0051,0.0218 -0.01017,0.0427 -0.01112,0.0468 -8.94e-4,0.004 -0.0032,0.0202 -0.0048,0.036 -0.0016,0.0158 -0.0055,0.0289 -0.0092,0.0288 -0.0037,-1.4e-4 -0.01531,-0.0217 -0.02648,-0.0473 -0.0068,-0.0155 -0.01403,-0.0308 -0.02118,-0.0462 -0.0038,0.006 -0.0074,0.0118 -0.01112,0.0176 -0.0062,0.01 -0.01634,0.0303 -0.02242,0.0459 -0.0117,0.0301 -0.02496,0.038 -0.02648,0.015 -5.53e-4,-0.008 -0.0022,-0.0193 -0.0039,-0.0261 -0.0016,-0.007 -0.0063,-0.0334 -0.01058,-0.059 -0.0043,-0.0256 -0.01004,-0.0515 -0.01201,-0.0574 -0.005,-0.0149 -0.01842,-0.0959 -0.02595,-0.1525 -0.0035,-0.026 -0.0098,-0.0561 -0.01412,-0.0666 -0.0053,-0.0128 -0.0041,-0.0205 0.0048,-0.0235 0.01605,-0.005 0.01996,-0.0251 0.0067,-0.0365 -0.0053,-0.005 -0.01228,-0.007 -0.01977,-0.007 h -1.81e-4 c -0.0016,-5e-5 -0.003,-1e-4 -0.0046,0 z m -0.04201,0.38444 c 0.0063,-5.3e-4 0.0093,0.003 0.0071,0.01 -0.0058,0.0159 -0.0189,0.0191 -0.01818,0.004 3.69e-4,-0.007 0.0052,-0.0134 0.01112,-0.0139 z m 0.353193,0.004 c 0.0067,7.9e-4 0.01594,0.008 0.0157,0.0155 -1.81e-4,0.006 -8.94e-4,0.0107 -0.0018,0.0106 -0.0066,-7.9e-4 -0.02125,-0.0157 -0.02065,-0.0212 3.68e-4,-0.003 0.0016,-0.004 0.0039,-0.005 8.94e-4,-1.8e-4 0.0019,-2.6e-4 0.0028,-1.8e-4 z m -0.396085,0.005 c 0.0038,-5.2e-4 0.0064,0.008 0.0058,0.0194 -5.52e-4,0.0111 -0.0025,0.0206 -0.0044,0.0208 -0.0019,1.8e-4 -0.0048,-0.008 -0.0062,-0.0194 -0.0013,-0.0109 8.95e-4,-0.0204 0.0048,-0.0208 z m 0.44533,0.005 c 0.0039,5.3e-4 0.0063,0.006 0.0053,0.0132 -0.0011,0.007 -0.0058,0.0122 -0.01058,0.0115 -0.0048,-7.9e-4 -0.0072,-0.007 -0.0053,-0.0136 0.0019,-0.007 0.0067,-0.0117 0.01058,-0.0111 z m -0.01147,0.0327 c 1.81e-4,-1e-4 3.68e-4,-1.8e-4 5.52e-4,0 5.52e-4,2.6e-4 8.94e-4,0.001 0.0013,0.003 0.0016,0.005 1.81e-4,0.012 -0.0027,0.015 -0.0028,0.003 -0.0039,-0.001 -0.0026,-0.009 7.1e-4,-0.004 0.0016,-0.007 0.0026,-0.008 1.81e-4,-1.8e-4 7.1e-4,-2.6e-4 8.95e-4,-5.2e-4 z m -0.30889,0.68044 0.01006,0.0669 -0.05366,0.008 -0.0041,-0.0268 -0.04554,0.007 0.0078,0.0528 0.05754,-0.009 0.006,0.0402 -0.05737,0.009 0.0056,0.0387 0.03089,-0.005 0.0062,0.0404 -0.112789,0.0169 -0.006,-0.0404 0.01889,-0.003 -0.01994,-0.13149 -0.01871,0.003 -0.006,-0.0401 z m 0.135205,0.0574 c 0.0018,-4e-5 0.0037,-4e-5 0.0056,0 l -0.0013,0.0549 c -0.02755,-5.2e-4 -0.04334,0.006 -0.04395,0.033 l -7.1e-4,0.0316 0.01518,2.6e-4 -7.1e-4,0.0402 -0.08667,-0.002 8.94e-4,-0.0401 0.01342,2.7e-4 0.0018,-0.0733 -0.01323,-2.6e-4 8.95e-4,-0.0397 0.05754,0.001 0.0088,0.0198 c 0.0078,-0.0136 0.01545,-0.0253 0.04236,-0.0261 z m 0.09408,0.0177 c 0.0055,1.4e-4 0.01109,7.9e-4 0.01677,0.002 0.03576,0.007 0.05939,0.0306 0.06319,0.0575 0.0016,0.0112 5.52e-4,0.0351 -0.0092,0.051 l -0.09461,-0.0185 c 1.81e-4,0.008 8.94e-4,0.0258 0.02612,0.0307 0.01022,0.002 0.02597,0.004 0.04483,-0.006 l 0.01959,0.0341 c -0.02598,0.0149 -0.05135,0.017 -0.08261,0.0109 -0.03726,-0.007 -0.07477,-0.0392 -0.06354,-0.0969 0.0084,-0.0431 0.04103,-0.0656 0.07943,-0.0646 z m 0.0042,0.0424 c -0.01372,7.9e-4 -0.01973,0.0136 -0.02153,0.0201 l 0.04554,0.009 c 0.0019,-0.0115 0.0016,-0.0247 -0.01765,-0.0284 -0.0023,-5.3e-4 -0.0044,-7.9e-4 -0.0064,-5.3e-4 z m 0.153211,0.007 c 0.01289,-7.9e-4 0.02652,0.002 0.03989,0.007 0.03372,0.0138 0.05235,0.0417 0.05083,0.0688 -7.1e-4,0.0113 -0.0063,0.0343 -0.01889,0.048 l -0.08914,-0.0364 c -0.0014,0.008 -0.0042,0.0252 0.01959,0.035 0.0096,0.004 0.02485,0.009 0.04536,0.003 l 0.01235,0.0373 c -0.02839,0.01 -0.05367,0.007 -0.08314,-0.005 -0.03514,-0.0144 -0.06567,-0.0531 -0.04342,-0.10749 0.01307,-0.0319 0.03816,-0.0484 0.06654,-0.0499 z m 0.01695,0.0441 c -8.94e-4,-2e-5 -0.0018,5e-5 -0.0026,1.8e-4 -0.01037,0.001 -0.01682,0.0104 -0.01942,0.0155 l 0.04272,0.0177 c 0.0041,-0.0109 0.0067,-0.0238 -0.01147,-0.0312 -0.0032,-0.001 -0.0064,-0.002 -0.0092,-0.002 z m -0.80276,0.0159 c 0.01879,-1.4e-4 0.03683,0.007 0.0496,0.0284 l 0.03089,0.051 0.0157,-0.009 0.0203,0.0335 -0.05595,0.0339 -0.01359,-0.008 c -0.0016,0.0192 -0.01563,0.0324 -0.02506,0.0381 -0.02488,0.0151 -0.05962,0.0179 -0.07802,-0.0126 -0.01792,-0.0296 -0.0043,-0.0633 0.02524,-0.0812 0.01545,-0.009 0.02916,-0.007 0.03142,-0.007 l -0.0055,-0.009 c -0.0071,-0.0118 -0.01975,-0.008 -0.03389,5.3e-4 -0.01545,0.009 -0.02515,0.024 -0.03177,0.0355 l -0.0293,-0.0235 c 0.0067,-0.0126 0.02162,-0.0387 0.04572,-0.0533 0.01571,-0.01 0.0354,-0.0173 0.05419,-0.0175 z m 1.100001,0.0644 c 0.002,-9e-5 0.0038,-5e-5 0.0058,0 0.0204,7.9e-4 0.04015,0.0108 0.05224,0.0226 0.01842,0.0179 0.03125,0.0419 0.02401,0.0669 l 0.02012,-0.0164 0.0376,0.0367 -0.05348,0.0552 -0.03971,-0.0388 c 0.01581,-0.0162 0.01201,-0.0378 -0.0034,-0.0528 -0.0064,-0.006 -0.019,-0.0107 -0.02648,-0.003 -0.022,0.0226 0.07014,0.10184 0.01994,0.15338 -0.03332,0.0342 -0.07733,0.0154 -0.103433,-0.0101 -0.02215,-0.0216 -0.02758,-0.0468 -0.0263,-0.0648 l -0.01889,0.0145 -0.0383,-0.0374 0.05384,-0.0551 0.04077,0.0395 c -0.01794,0.0184 -0.0024,0.0395 0.0063,0.0489 0.0077,0.007 0.02033,0.0164 0.0293,0.007 0.01666,-0.0171 -0.07458,-0.092 -0.02012,-0.14791 0.0121,-0.0124 0.02613,-0.0179 0.04007,-0.0187 z m -1.090646,0.0312 c -0.003,1.8e-4 -0.0066,0.001 -0.01076,0.004 -0.01047,0.006 -0.01145,0.015 -0.0065,0.0231 0.0044,0.007 0.0135,0.009 0.02136,0.004 0.0079,-0.005 0.01132,-0.0134 0.01129,-0.0187 l -0.0058,-0.01 c -8.94e-4,-5.3e-4 -0.0045,-0.002 -0.0095,-0.002 z m -0.167329,0.0154 c 0.01914,-1.8e-4 0.03615,0.0129 0.05013,0.0274 l 0.03565,0.0369 0.01024,-0.0101 0.02789,0.0289 -0.05542,0.0535 -0.05807,-0.06 c -0.0072,-0.007 -0.01915,-0.0212 -0.03213,-0.009 -0.01121,0.0109 -0.0032,0.0244 0.006,0.0339 l 0.03001,0.0312 0.01588,-0.0152 0.02789,0.0288 -0.0676,0.0655 -0.02789,-0.0288 0.0092,-0.009 -0.05084,-0.0526 -0.0094,0.009 -0.02753,-0.0288 0.04678,-0.0454 0.01818,0.009 c -0.0025,-0.0176 5.52e-4,-0.0346 0.01448,-0.048 0.01278,-0.0124 0.02505,-0.0175 0.03654,-0.0176 z m -0.120381,0.15639 c 0.01549,-5.3e-4 0.03184,0.004 0.04801,0.0141 0.04269,0.0276 0.04619,0.0752 0.02047,0.11402 -0.0242,0.0365 -0.07008,0.0568 -0.114907,0.0263 -0.04244,-0.0285 -0.04329,-0.0788 -0.01995,-0.11402 0.01702,-0.025 0.04055,-0.0396 0.06637,-0.0404 z m 1.475789,0.009 c 0.02924,-7.9e-4 0.05608,0.0159 0.07184,0.0402 0.02573,0.041 0.02074,0.0869 -0.02171,0.11543 -0.04236,0.0281 -0.08719,0.0122 -0.112437,-0.0268 -0.02376,-0.0368 -0.02396,-0.0869 0.02189,-0.11579 0.01347,-0.009 0.02713,-0.0127 0.04042,-0.0131 z m -1.495733,0.0461 c -0.0056,5.3e-4 -0.01017,0.003 -0.01323,0.007 -0.0066,0.01 0.0033,0.0275 0.02189,0.0399 0.02092,0.0139 0.04002,0.0148 0.04713,0.004 0.0073,-0.011 -0.0033,-0.0272 -0.02242,-0.0399 -0.01195,-0.008 -0.02405,-0.0123 -0.03336,-0.0115 z m 1.522032,0.009 c -0.0018,-1.8e-4 -0.0038,-1e-5 -0.0058,1.8e-4 -0.0081,7.9e-4 -0.01798,0.004 -0.02736,0.0104 -0.02109,0.0136 -0.02939,0.0307 -0.02242,0.0415 0.0071,0.011 0.02608,0.008 0.04536,-0.005 0.01929,-0.0125 0.02997,-0.0289 0.02242,-0.0411 -0.0024,-0.004 -0.0067,-0.006 -0.01219,-0.006 z m -1.699777,0.0597 0.17298,0.0771 0.0074,-0.0164 0.03672,0.0163 -0.03636,0.0817 -0.03671,-0.0163 0.0053,-0.0122 -0.136971,-0.0611 -0.0053,0.0118 -0.03601,-0.0163 z m 1.851751,0.0173 c 0.01684,-1.8e-4 0.03654,0.008 0.05013,0.0394 0.0063,0.0146 0.01129,0.0354 0.01076,0.0443 l -0.03954,-0.003 c 9.1e-5,-0.004 -7.1e-4,-0.009 -0.0041,-0.0168 -0.0026,-0.006 -0.0084,-0.007 -0.01853,-0.002 l -0.024,0.0102 0.01094,0.0256 -0.03654,0.0157 -0.01094,-0.0256 -0.06725,0.0288 0.0071,0.017 -0.03672,0.0157 -0.03601,-0.0838 0.03689,-0.0157 0.0048,0.0113 0.06743,-0.029 -0.0049,-0.0117 0.03654,-0.0157 0.0049,0.0117 0.02383,-0.0102 c 0.006,-0.003 0.01513,-0.006 0.02524,-0.006 z m -0.0063,0.11915 0.0044,0.0159 0.02718,-0.008 0.03265,0.0494 -0.04448,0.0127 0.0081,0.0277 -0.03848,0.0109 -0.008,-0.0279 -0.05242,0.0148 c -0.01001,0.003 -0.02408,0.005 -0.02083,0.0161 0.0011,0.004 0.0063,0.0124 0.01024,0.0173 l -0.03777,0.0106 c -0.006,-0.008 -0.01379,-0.0273 -0.0157,-0.0341 -0.01253,-0.0442 0.01127,-0.0525 0.04872,-0.0641 l 0.05242,-0.0148 -0.0044,-0.0159 z m -1.774616,7.9e-4 c 0.0123,1.8e-4 0.03225,0.003 0.04554,0.0129 l -0.02524,0.0932 c 0.0085,2.6e-4 0.02581,7.8e-4 0.03248,-0.024 0.0027,-0.0101 0.006,-0.0255 -0.003,-0.045 l 0.0353,-0.0173 c 0.01305,0.027 0.01356,0.0524 0.0053,0.0831 -0.0098,0.0367 -0.04437,0.0719 -0.10114,0.0567 -0.04849,-0.013 -0.06776,-0.0556 -0.05577,-0.10026 0.0094,-0.0352 0.03464,-0.0572 0.06178,-0.0591 0.0014,-10e-5 0.003,-1.8e-4 0.0048,-1.8e-4 z m -0.0063,0.0512 c -0.0011,-2e-5 -0.0021,5e-5 -0.0032,1.8e-4 -0.007,7.9e-4 -0.01341,0.005 -0.01659,0.017 -0.0048,0.018 0.01024,0.0264 0.01747,0.0289 l 0.01219,-0.0445 c -0.0032,-7.8e-4 -0.0066,-0.001 -0.0099,-0.002 z m 1.822096,0.0718 0.0048,0.0822 -0.03972,0.002 -5.52e-4,-0.0104 -0.02206,0.008 c -0.01442,0.005 -0.03477,0.009 -0.0436,0.0102 v 5.2e-4 c 0.01258,1.9e-4 0.04177,0.001 0.07254,0.008 l 0.03495,0.008 0.003,0.0565 -0.03901,0.0139 c -0.02312,0.009 -0.05486,0.0151 -0.06548,0.0169 v 2.6e-4 c 0.0098,2.7e-4 0.03226,0.002 0.04872,0.006 l 0.01836,0.004 -8.94e-4,-0.0125 0.03989,-0.002 0.0042,0.0747 -0.03972,0.002 -7.1e-4,-0.0125 -0.11526,-0.0293 -0.0035,-0.0646 0.06778,-0.0249 -0.07025,-0.0182 -0.0035,-0.0628 0.111023,-0.0409 -5.52e-4,-0.0132 0.03954,-0.002 z m -1.903466,0.0448 0.06901,0.005 -0.0034,0.045 c -0.0147,-5.3e-4 -0.03217,0.003 -0.03318,0.0169 -0.0013,0.018 0.01722,0.0282 0.03707,0.0297 0.01985,0.001 0.03641,-0.009 0.03813,-0.029 0.0014,-0.0162 -0.0044,-0.0273 -0.01466,-0.0381 l 0.03319,-0.0247 c 0.01453,0.0155 0.02797,0.0442 0.02559,0.0771 -0.0032,0.0449 -0.03302,0.0819 -0.08737,0.078 -0.05405,-0.004 -0.07572,-0.0416 -0.0729,-0.0807 0.0014,-0.0208 0.01381,-0.0321 0.0203,-0.0369 l -0.01448,-0.006 z m 0.0383,0.17351 c 0.0027,0.0274 0.01114,0.0425 0.03795,0.0399 l 0.03142,-0.003 -0.0014,-0.0155 0.03989,-0.004 0.0085,0.0861 -0.04007,0.004 -0.0013,-0.0132 -0.0729,0.007 0.0014,0.0132 -0.03972,0.004 -0.0056,-0.0574 0.01871,-0.0109 c -0.0154,-0.007 -0.02871,-0.0133 -0.03177,-0.0447 z m 1.754849,0.0491 c 0.0039,-1.4e-4 0.0078,1.8e-4 0.01217,0.001 0.03393,0.007 0.04962,0.0395 0.04289,0.0734 -0.0035,0.0177 -0.01414,0.0266 -0.01624,0.0277 l 0.01058,0.002 c 0.01352,0.003 0.01903,-0.009 0.02224,-0.0252 0.0035,-0.0177 -8.94e-4,-0.0348 -0.0049,-0.0475 l 0.03742,-0.006 c 0.0048,0.0134 0.01394,0.0421 0.0085,0.0697 -0.0071,0.036 -0.02984,0.0788 -0.07819,0.0692 l -0.05842,-0.0117 -0.0035,0.018 -0.03848,-0.007 0.01271,-0.0643 0.015,-0.005 c -0.01311,-0.0142 -0.01343,-0.0335 -0.01131,-0.0443 0.0049,-0.025 0.02209,-0.0493 0.0496,-0.0503 z m 0.0011,0.0584 c -0.007,9e-5 -0.01273,0.006 -0.0143,0.0136 -0.0018,0.009 0.002,0.0176 0.006,0.0212 l 0.01146,0.002 c 0.0016,-5.2e-4 0.0099,-0.003 0.01235,-0.0161 0.0024,-0.012 -0.0032,-0.0186 -0.01253,-0.0205 -0.0011,-1.8e-4 -0.002,-2.7e-4 -0.003,-2.7e-4 z m -1.640293,0.009 0.01871,0.0627 -0.01112,0.0111 c 0.0182,0.006 0.02757,0.0233 0.03071,0.0339 0.0083,0.0279 0.0023,0.0624 -0.03177,0.0725 -0.03316,0.01 -0.06249,-0.012 -0.07237,-0.0452 -0.0052,-0.0173 5.53e-4,-0.03 0.0018,-0.0319 l -0.01024,0.003 c -0.0132,0.004 -0.01302,0.0168 -0.0083,0.0327 0.0052,0.0173 0.01698,0.0306 0.02648,0.0399 l -0.03018,0.0224 c -0.01053,-0.01 -0.03185,-0.0307 -0.03989,-0.0577 -0.01049,-0.0352 -0.01053,-0.0835 0.03671,-0.0976 l 0.05719,-0.0171 -0.0051,-0.0176 z m -0.01924,0.0897 -0.01112,0.003 c -0.0013,0.001 -0.007,0.007 -0.0034,0.0198 0.0035,0.0117 0.01138,0.0151 0.02048,0.0124 0.0082,-0.002 0.01197,-0.0108 0.0094,-0.0196 -0.0026,-0.009 -0.01017,-0.0145 -0.01536,-0.0159 z m 1.585398,0.0192 0.03707,0.0152 -0.0051,0.0125 0.0676,0.0279 0.0049,-0.0122 0.03689,0.015 -0.02206,0.0533 -0.02154,10e-4 c 0.01057,0.0129 0.01924,0.0252 0.0072,0.0544 l -0.05119,-0.021 c 0.01049,-0.0255 0.01008,-0.0427 -0.01482,-0.053 l -0.02912,-0.012 -0.0058,0.0141 -0.03707,-0.0152 z m -1.537564,0.0831 c 0.02256,-2.6e-4 0.0427,0.0159 0.06319,0.051 l 0.0586,0.10043 -0.03442,0.0201 -0.0088,-0.0154 -0.116319,0.068 0.0088,0.0154 -0.03406,0.02 -0.05754,-0.0987 c -0.02564,-0.0439 -0.0214,-0.0742 0.0074,-0.0911 0.02221,-0.013 0.03644,-0.0133 0.05595,0.002 -0.0058,-0.0221 -8.94e-4,-0.0463 0.02471,-0.0613 0.01165,-0.007 0.02222,-0.0103 0.03248,-0.0104 z m 1.513207,0.0463 c 0.0019,-9e-5 0.0038,-5e-5 0.0056,0 0.01378,5.2e-4 0.02874,0.005 0.0443,0.0146 0.04254,0.0267 0.04856,0.0731 0.024,0.11226 -0.01935,0.0309 -0.04992,0.0446 -0.07643,0.0385 -0.01103,-0.003 -0.03293,-0.0123 -0.0443,-0.027 l 0.05119,-0.0817 c -0.008,-0.003 -0.02429,-0.008 -0.03795,0.0134 -0.0055,0.009 -0.01331,0.0226 -0.01042,0.0439 l -0.03865,0.006 c -0.0046,-0.0296 0.0025,-0.0542 0.01942,-0.0812 0.013,-0.0207 0.03545,-0.0378 0.06319,-0.039 z m -1.50244,0.0221 c -0.0039,2.6e-4 -0.0078,0.002 -0.01183,0.004 -0.01349,0.008 -0.01873,0.0211 -0.01024,0.0357 l 0.01165,0.0203 0.04624,-0.0268 -0.01253,-0.0212 c -0.0041,-0.007 -0.01112,-0.0115 -0.01942,-0.012 -0.0013,-1e-4 -0.0026,-1.4e-4 -0.0039,0 z m -0.06725,0.0503 c -0.004,2.6e-4 -0.0083,0.002 -0.01307,0.005 -0.01215,0.007 -0.01505,0.0187 -0.0092,0.0288 l 0.0097,0.0168 0.03971,-0.0233 -0.0095,-0.0161 c -0.0051,-0.009 -0.01091,-0.0119 -0.01765,-0.0111 z m 1.599519,0.001 -0.02471,0.0392 c 0.01002,0.006 0.02242,0.0104 0.03283,-0.006 0.0099,-0.0158 -0.002,-0.0284 -0.0081,-0.033 z"
       id="path3138-2"
       inkscape:connector-curvature="0" />
    <circle
       style="opacity:0;fill:#ffffff;fill-opacity:1;stroke:none;stroke-width:0.00710505"
       id="path2992-6"
       cx="-53.714897"
       cy="237.01118"
       r="0.75871754" />
    <flowRoot
       transform="matrix(0.00564827,0,0,0.00564827,-55.674825,234.56839)"
       xml:space="preserve"
       id="flowRoot3984-5"
       style="font-style:normal;font-weight:normal;line-height:0.01%;font-family:sans-serif;letter-spacing:0px;word-spacing:0px;fill:#ffffff;fill-opacity:1;stroke:none;stroke-width:1px;stroke-linecap:butt;stroke-linejoin:miter;stroke-opacity:1"><flowRegion
         id="flowRegion3986-8"
         style="font-family:sans-serif;fill:#ffffff"><rect
           id="rect3988-7"
           width="144.45181"
           height="40.406101"
           x="371.73615"
           y="848.31134"
           style="font-family:sans-serif;fill:#ffffff" /></flowRegion><flowPara
         id="flowPara3990-9"
         style="font-size:40px;line-height:1.25;font-family:sans-serif;fill:#ffffff"> </flowPara></flowRoot>    <text
       xml:space="preserve"
       style="font-style:normal;font-variant:normal;font-weight:normal;font-stretch:normal;font-size:1.04014897px;line-height:0.65007997px;font-family:'Sony Fixed';-inkscape-font-specification:'Sony Fixed, Normal';font-variant-ligatures:normal;font-variant-caps:normal;font-variant-numeric:normal;font-feature-settings:normal;text-align:start;letter-spacing:0px;word-spacing:0px;writing-mode:lr-tb;text-anchor:start;fill:#ffffff;fill-opacity:1;stroke:none;stroke-width:0.0260032px;stroke-linecap:butt;stroke-linejoin:miter;stroke-opacity:1"
       x="23.486671"
       y="214.79883"
       id="text2761-7"><tspan
         sodipodi:role="line"
         id="tspan2759-6"
         x="23.486671"
         y="214.79883"
         style="font-style:normal;font-variant:normal;font-weight:normal;font-stretch:normal;font-size:1.02048159px;font-family:Hack;-inkscape-font-specification:'Hack, Normal';font-variant-ligatures:normal;font-variant-caps:normal;font-variant-numeric:normal;font-feature-settings:normal;text-align:start;writing-mode:lr-tb;text-anchor:start;fill:#ffffff;stroke-width:0.0260032px">bcnfs.org</tspan></text>
  </g>
</svg>
